<svg xmlns="http://www.w3.org/2000/svg" xmlns:xlink="http://www.w3.org/1999/xlink" version="1.1" width="1000" height="1000" viewBox="0 0 1000 1000" xml:space="preserve">
<desc>Created with Fabric.js 3.5.0</desc>
<defs>
</defs>
<rect x="0" y="0" width="100%" height="100%" fill="rgba(255,255,255,0)"/>
<g transform="matrix(6.1088 0 0 6.1088 537.2373 584.607)" id="604457">
<g style="" vector-effect="non-scaling-stroke">
		<g transform="matrix(1 0 0 1 -7.1369 -17.8583)" id="Layer_1">
<linearGradient id="SVGID_19" gradientUnits="userSpaceOnUse" gradientTransform="matrix(1 0 0 1 0 0)" x1="80.6836" y1="54.7712" x2="205.9228" y2="180.0104">
<stop offset="0%" style="stop-color:rgb(239,64,35);stop-opacity: 1"/>
<stop offset="100%" style="stop-color:rgb(254,196,13);stop-opacity: 1"/>
</linearGradient>
<path style="stroke: none; stroke-width: 1; stroke-dasharray: none; stroke-linecap: butt; stroke-dashoffset: 0; stroke-linejoin: miter; stroke-miterlimit: 4; is-custom-font: none; font-file-url: none; fill: url(#SVGID_19); fill-rule: nonzero; opacity: 1;" transform=" translate(-138.5131, -116.9267)" d="M 214.86 131.45 l -17.21 -11.48 c -1.69 -1.13 -4 0.04 -4 2.01 v 7.01 h -81.44 l -11.93 -39.32 c -0.58 -1.91 -2.4 -3.22 -4.47 -3.22 H 65.72 c -2.57 0 -4.65 2 -4.65 4.48 c 0 2.47 2.08 4.48 4.65 4.48 h 26.61 l 11.93 39.32 c 0.58 1.91 2.4 3.22 4.47 3.22 h 84.93 v 7 c 0 1.98 2.31 3.14 4 2.01 l 17.21 -11.48 C 216.32 134.5 216.32 132.42 214.86 131.45 z" stroke-linecap="round"/>
</g>
		<g transform="matrix(1 0 0 1 -13.17 16.625)" id="Layer_1">
<linearGradient id="SVGID_20" gradientUnits="userSpaceOnUse" gradientTransform="matrix(1 0 0 1 -132.48 -151.41)" x1="74.6064" y1="93.5415" x2="184.5445" y2="203.4796">
<stop offset="0%" style="stop-color:rgb(102,102,174);stop-opacity: 1"/>
<stop offset="100%" style="stop-color:rgb(95,95,170);stop-opacity: 1"/>
</linearGradient>
<circle style="stroke: none; stroke-width: 1; stroke-dasharray: none; stroke-linecap: butt; stroke-dashoffset: 0; stroke-linejoin: miter; stroke-miterlimit: 4; is-custom-font: none; font-file-url: none; fill: url(#SVGID_20); fill-rule: nonzero; opacity: 1;" cx="0" cy="0" r="8.17"/>
</g>
		<g transform="matrix(1 0 0 1 22.58 16.625)" id="Layer_1">
<linearGradient id="SVGID_21" gradientUnits="userSpaceOnUse" gradientTransform="matrix(1 0 0 1 -168.23 -151.41)" x1="92.4841" y1="75.6639" x2="202.422" y2="185.6019">
<stop offset="0%" style="stop-color:rgb(102,102,174);stop-opacity: 1"/>
<stop offset="100%" style="stop-color:rgb(95,95,170);stop-opacity: 1"/>
</linearGradient>
<circle style="stroke: none; stroke-width: 1; stroke-dasharray: none; stroke-linecap: butt; stroke-dashoffset: 0; stroke-linejoin: miter; stroke-miterlimit: 4; is-custom-font: none; font-file-url: none; fill: url(#SVGID_21); fill-rule: nonzero; opacity: 1;" cx="0" cy="0" r="8.17"/>
</g>
		<g transform="matrix(1 0 0 1 -17.95 -30.115)" id="Layer_1">
<linearGradient id="SVGID_22" gradientUnits="userSpaceOnUse" gradientTransform="matrix(1 0 0 1 0 0)" x1="113.7617" y1="104.6695" x2="141.646" y2="104.6695">
<stop offset="0%" style="stop-color:rgb(102,102,174);stop-opacity: 1"/>
<stop offset="100%" style="stop-color:rgb(95,95,170);stop-opacity: 1"/>
</linearGradient>
<path style="stroke: none; stroke-width: 1; stroke-dasharray: none; stroke-linecap: butt; stroke-dashoffset: 0; stroke-linejoin: miter; stroke-miterlimit: 4; is-custom-font: none; font-file-url: none; fill: url(#SVGID_22); fill-rule: nonzero; opacity: 1;" transform=" translate(-127.7, -104.67)" d="M 135.41 120.45 l -0.07 -16.72 l -6.17 13.61 h -3.01 l -6.13 -13.16 v 16.27 h -6.27 V 88.89 h 5.58 l 8.43 18.21 l 8.22 -18.21 h 5.58 l 0.07 31.55 H 135.41 z" stroke-linecap="round"/>
</g>
		<g transform="matrix(1 0 0 1 9.475 -30.1)" id="Layer_1">
<linearGradient id="SVGID_23" gradientUnits="userSpaceOnUse" gradientTransform="matrix(1 0 0 1 0 0)" x1="144.7593" y1="104.6695" x2="165.4844" y2="104.6695">
<stop offset="0%" style="stop-color:rgb(102,102,174);stop-opacity: 1"/>
<stop offset="100%" style="stop-color:rgb(95,95,170);stop-opacity: 1"/>
</linearGradient>
<path style="stroke: none; stroke-width: 1; stroke-dasharray: none; stroke-linecap: butt; stroke-dashoffset: 0; stroke-linejoin: miter; stroke-miterlimit: 4; is-custom-font: none; font-file-url: none; fill: url(#SVGID_23); fill-rule: nonzero; opacity: 1;" transform=" translate(-155.125, -104.685)" d="M 144.76 117.61 l 2.23 -6.58 c 2.12 1.85 5.14 3.11 7.91 3.11 c 2.81 0 3.91 -1.04 3.91 -2.57 c 0 -5 -13.63 -1.35 -13.63 -13.07 c 0 -5.63 3.49 -10.23 10.62 -10.23 c 3.12 0 6.34 0.95 8.7 2.75 l -2.09 6.63 c -2.29 -1.62 -4.56 -2.43 -6.65 -2.43 c -2.84 0 -3.87 1.26 -3.87 2.84 c 0 4.82 13.6 1.22 13.6 12.85 c 0 5.5 -3.49 10.19 -10.62 10.19 C 150.93 121.08 147.02 119.68 144.76 117.61 z" stroke-linecap="round"/>
</g>
		<g transform="matrix(1 0 0 1 34.935 -30.115)" id="Layer_1">
<linearGradient id="SVGID_24" gradientUnits="userSpaceOnUse" gradientTransform="matrix(1 0 0 1 0 0)" x1="168.5977" y1="104.6695" x2="192.5772" y2="104.6695">
<stop offset="0%" style="stop-color:rgb(102,102,174);stop-opacity: 1"/>
<stop offset="100%" style="stop-color:rgb(95,95,170);stop-opacity: 1"/>
</linearGradient>
<path style="stroke: none; stroke-width: 1; stroke-dasharray: none; stroke-linecap: butt; stroke-dashoffset: 0; stroke-linejoin: miter; stroke-miterlimit: 4; is-custom-font: none; font-file-url: none; fill: url(#SVGID_24); fill-rule: nonzero; opacity: 1;" transform=" translate(-180.585, -104.67)" d="M 177.85 109 l -2.54 3.56 v 7.89 h -6.71 V 88.89 h 6.71 v 13.12 l 9.28 -13.12 h 7.47 l -9.8 13.97 l 10.31 17.58 h -7.88 L 177.85 109 z" stroke-linecap="round"/>
</g>
</g>
</g>
</svg>