<?xml version="1.0" standalone="no"?>
<!DOCTYPE svg PUBLIC "-//W3C//DTD SVG 1.0//EN" "http://www.w3.org/TR/2001/REC-SVG-20010904/DTD/svg10.dtd">
<svg xmlns="http://www.w3.org/2000/svg" xmlns:xlink="http://www.w3.org/1999/xlink" id="body_1" width="1024" height="768">

<defs>
    <linearGradient transform="matrix(1 0 0 1 0 0)"  id="1" x1="80.6836" y1="54.7712" x2="205.9228" y2="180.0104">
        <stop stop-color="#EF4023" offset="0%"/>
        <stop stop-color="#FEC40D" offset="100%"/>
    </linearGradient>
    <linearGradient transform="matrix(1 0 0 1 0 0)"  id="238" x1="74.6064" y1="93.5415" x2="184.5445" y2="203.4796">
        <stop stop-color="#6666AE" offset="0%"/>
        <stop stop-color="#5F5FAA" offset="100%"/>
    </linearGradient>
    <linearGradient transform="matrix(1 0 0 1 0 0)"  id="477" x1="92.4841" y1="75.6639" x2="202.422" y2="185.6019">
        <stop stop-color="#6666AE" offset="0%"/>
        <stop stop-color="#5F5FAA" offset="100%"/>
    </linearGradient>
    <linearGradient transform="matrix(1 0 0 1 0 0)"  id="715" x1="113.7617" y1="104.6695" x2="141.646" y2="104.6695">
        <stop stop-color="#6666AE" offset="0%"/>
        <stop stop-color="#5F5FAA" offset="100%"/>
    </linearGradient>
    <linearGradient transform="matrix(1 0 0 1 0 0)"  id="955" x1="144.7593" y1="104.6695" x2="165.4844" y2="104.6695">
        <stop stop-color="#6666AE" offset="0%"/>
        <stop stop-color="#5F5FAA" offset="100%"/>
    </linearGradient>
    <linearGradient transform="matrix(1 0 0 1 0 0)"  id="1196" x1="168.5977" y1="104.6695" x2="192.5772" y2="104.6695">
        <stop stop-color="#6666AE" offset="0%"/>
        <stop stop-color="#5F5FAA" offset="100%"/>
    </linearGradient>
</defs>

<g transform="matrix(2.8489816 0 0 2.8489816 97.04583 -0)">
    <path d="M214.86 131.45L197.65 119.97C 195.95999 118.840004 193.65 120.01 193.65 121.98L193.65 121.98L193.65 128.99L112.20999 128.99L100.27999 89.670006C 99.69999 87.76 97.87999 86.450005 95.80999 86.450005L95.80999 86.450005L65.72 86.450005C 63.15 86.450005 61.07 88.450005 61.07 90.93001C 61.07 93.40001 63.15 95.41001 65.72 95.41001L65.72 95.41001L92.33 95.41001L104.26 134.73001C 104.840004 136.64001 106.66 137.95001 108.73 137.95001L108.73 137.95001L193.66 137.95001L193.66 144.95001C 193.66 146.93001 195.97 148.09001 197.66 146.96L197.66 146.96L214.87 135.48001C 216.32 134.5 216.32 132.42 214.86 131.45z" stroke="none" fill="url(#1)" />
	<g>
        <path d="M140.65 151.41C 140.65 153.66609 139.85236 155.59178 138.25706 157.18707C 136.66177 158.78236 134.73608 159.58002 132.48 159.58C 130.22392 159.58002 128.29823 158.78236 126.702934 157.18707C 125.10765 155.59178 124.310005 153.66609 124.31 151.41C 124.310005 149.15393 125.10765 147.22824 126.702934 145.63293C 128.29823 144.03766 130.22392 143.24 132.48 143.24C 134.73608 143.24 136.66177 144.03766 138.25706 145.63293C 139.85236 147.22824 140.65 149.15393 140.65 151.41C 140.65 151.50508 140.64835 151.60013 140.64502 151.69513" stroke="none" fill="url(#238)" />
        <path d="M176.4 151.41C 176.4 153.66609 175.60236 155.59178 174.00706 157.18707C 172.41177 158.78236 170.48608 159.58002 168.23 159.58C 165.9739 159.58002 164.04822 158.78236 162.45293 157.18707C 160.85764 155.59178 160.06 153.66609 160.06 151.41C 160.06 149.15393 160.85764 147.22824 162.45293 145.63293C 164.04822 144.03766 165.9739 143.24 168.23 143.24C 170.48608 143.24 172.41177 144.03766 174.00706 145.63293C 175.60236 147.22824 176.4 149.15393 176.4 151.41C 176.4 151.50508 176.39835 151.60013 176.39502 151.69513" stroke="none" fill="url(#477)" />
	</g>
	<g>
        <path d="M135.41 120.45L135.34 103.729996L129.17 117.34L126.159996 117.34L120.03 104.17999L120.03 120.45L113.76 120.45L113.76 88.89L119.340004 88.89L127.770004 107.1L135.99 88.89L141.57 88.89L141.64001 120.44L135.41 120.44L135.41 120.45z" stroke="none" fill="url(#715)" />
        <path d="M144.76 117.61L146.98999 111.03C 149.10999 112.88 152.12999 114.14 154.9 114.14C 157.70999 114.14 158.81 113.1 158.81 111.57C 158.81 106.57 145.18 110.22 145.18 98.5C 145.18 92.87 148.67 88.270004 155.79999 88.270004C 158.91998 88.270004 162.13998 89.22 164.49998 91.020004L164.49998 91.020004L162.40999 97.65C 160.12 96.03 157.84999 95.22 155.76 95.22C 152.92 95.22 151.89 96.48 151.89 98.06C 151.89 102.88 165.49 99.28 165.49 110.909996C 165.49 116.409996 162 121.1 154.87001 121.1C 150.93 121.08 147.02 119.68 144.76 117.61z" stroke="none" fill="url(#955)" />
        <path d="M177.85 109L175.31001 112.56L175.31001 120.45L168.6 120.45L168.6 88.89L175.31001 88.89L175.31001 102.01L184.59001 88.89L192.06001 88.89L182.26001 102.86L192.57 120.44L184.69 120.44L177.85 109z" stroke="none" fill="url(#1196)" />
	</g>
</g>
</svg>