<?xml version="1.0" encoding="utf-8"?>
<svg viewBox="0 0 500 500" xmlns="http://www.w3.org/2000/svg">
  <linearGradient id="SVGID_1_" gradientUnits="userSpaceOnUse" x1="80.6836" y1="54.7712" x2="205.9228" y2="180.0104" gradientTransform="matrix(3.044814, 0, 0, 3.044814, -173.502062, -90.452882)">
    <stop offset="0" style="stop-color:#EF4023"/>
    <stop offset="1" style="stop-color:#FEC40D"/>
  </linearGradient>
  <path class="st0" d="M 480.704 309.787 L 428.305 274.835 C 423.159 271.393 416.125 274.955 416.125 280.953 L 416.125 302.299 L 168.156 302.299 L 131.831 182.574 C 130.065 176.759 124.524 172.771 118.221 172.771 L 26.601 172.771 C 18.777 172.771 12.444 178.862 12.444 186.413 C 12.444 193.933 18.777 200.054 26.601 200.054 L 107.625 200.054 L 143.95 319.774 C 145.714 325.59 151.256 329.581 157.559 329.581 L 416.156 329.581 L 416.156 350.893 C 416.156 356.922 423.191 360.454 428.336 357.012 L 480.736 322.06 C 485.151 319.074 485.151 312.74 480.704 309.787 Z" style="fill: url(#SVGID_1_);"/>
  <g transform="matrix(3.044813, 0, 0, 3.044813, -173.502075, -90.452888)" style="">
    <linearGradient id="SVGID_2_" gradientUnits="userSpaceOnUse" x1="74.6064" y1="93.5415" x2="184.5445" y2="203.4796">
      <stop offset="0" style="stop-color:#6666AE"/>
      <stop offset="1" style="stop-color:#5F5FAA"/>
    </linearGradient>
    <circle class="st1" cx="132.48" cy="151.41" r="8.17" style="fill: url(#SVGID_2_);"/>
    <linearGradient id="SVGID_3_" gradientUnits="userSpaceOnUse" x1="92.4841" y1="75.6639" x2="202.422" y2="185.6019">
      <stop offset="0" style="stop-color:#6666AE"/>
      <stop offset="1" style="stop-color:#5F5FAA"/>
    </linearGradient>
    <circle class="st2" cx="168.23" cy="151.41" r="8.17" style="fill: url(#SVGID_3_);"/>
  </g>
  <g transform="matrix(3.044813, 0, 0, 3.044813, -173.502075, -90.452888)" style="">
    <linearGradient id="SVGID_4_" gradientUnits="userSpaceOnUse" x1="113.7617" y1="104.6695" x2="141.646" y2="104.6695">
      <stop offset="0" style="stop-color:#6666AE"/>
      <stop offset="1" style="stop-color:#5F5FAA"/>
    </linearGradient>
    <path class="st3" d="M135.41,120.45l-0.07-16.72l-6.17,13.61h-3.01l-6.13-13.16v16.27h-6.27V88.89h5.58l8.43,18.21l8.22-18.21h5.58 l0.07,31.55H135.41z" style="fill: url(#SVGID_4_);"/>
    <linearGradient id="SVGID_5_" gradientUnits="userSpaceOnUse" x1="144.7593" y1="104.6695" x2="165.4844" y2="104.6695">
      <stop offset="0" style="stop-color:#6666AE"/>
      <stop offset="1" style="stop-color:#5F5FAA"/>
    </linearGradient>
    <path class="st4" d="M144.76,117.61l2.23-6.58c2.12,1.85,5.14,3.11,7.91,3.11c2.81,0,3.91-1.04,3.91-2.57 c0-5-13.63-1.35-13.63-13.07c0-5.63,3.49-10.23,10.62-10.23c3.12,0,6.34,0.95,8.7,2.75l-2.09,6.63c-2.29-1.62-4.56-2.43-6.65-2.43 c-2.84,0-3.87,1.26-3.87,2.84c0,4.82,13.6,1.22,13.6,12.85c0,5.5-3.49,10.19-10.62,10.19 C150.93,121.08,147.02,119.68,144.76,117.61z" style="fill: url(#SVGID_5_);"/>
    <linearGradient id="SVGID_6_" gradientUnits="userSpaceOnUse" x1="168.5977" y1="104.6695" x2="192.5772" y2="104.6695">
      <stop offset="0" style="stop-color:#6666AE"/>
      <stop offset="1" style="stop-color:#5F5FAA"/>
    </linearGradient>
    <path class="st5" d="M177.85,109l-2.54,3.56v7.89h-6.71V88.89h6.71v13.12l9.28-13.12h7.47l-9.8,13.97l10.31,17.58h-7.88L177.85,109 z" style="fill: url(#SVGID_6_);"/>
  </g>
</svg>