<?xml version="1.0" standalone="no"?>
<!DOCTYPE svg PUBLIC "-//W3C//DTD SVG 20010904//EN"
 "http://www.w3.org/TR/2001/REC-SVG-20010904/DTD/svg10.dtd">
<svg version="1.0" xmlns="http://www.w3.org/2000/svg"
 width="256.000000pt" height="161.000000pt" viewBox="0 0 256.000000 161.000000"
 preserveAspectRatio="xMidYMid meet">

<g transform="translate(0.000000,161.000000) scale(0.100000,-0.100000)"
fill="#000000" stroke="none">
<path d="M49 1599 c-58 -22 -59 -98 -2 -120 15 -5 119 -9 237 -9 227 2 216 4
236 -54 l11 -30 50 50 c48 48 50 53 43 89 -12 65 -30 75 -141 75 -54 0 -168 2
-253 5 -97 3 -165 1 -181 -6z"/>
<path d="M1455 1571 c-80 -20 -120 -79 -113 -168 6 -70 31 -95 129 -131 59
-22 75 -32 77 -50 8 -53 -56 -68 -137 -32 -24 11 -45 20 -46 20 -2 0 -10 -20
-18 -45 -16 -44 -15 -46 7 -60 58 -38 159 -46 216 -17 52 26 80 74 80 139 0
74 -37 114 -135 146 -57 18 -71 26 -73 45 -2 13 2 30 8 38 16 19 87 18 124 -1
16 -9 30 -14 31 -13 6 8 25 73 25 84 0 31 -113 60 -175 45z"/>
<path d="M840 1326 l0 -246 45 0 45 0 0 120 c0 66 3 120 8 120 4 0 27 -43 51
-96 40 -85 46 -95 68 -92 21 2 32 19 68 96 23 51 45 95 49 99 3 3 6 -51 6
-120 l0 -127 45 0 45 0 0 245 0 245 -39 0 -39 0 -63 -140 c-35 -77 -67 -139
-72 -137 -5 1 -37 63 -71 137 l-63 135 -41 3 -42 3 0 -245z"/>
<path d="M1710 1325 l0 -245 50 0 50 0 0 60 c0 58 19 110 40 110 5 0 32 -38
60 -85 l51 -85 59 0 59 0 -80 135 -81 135 69 97 c37 53 72 103 76 110 6 10 -4
13 -46 13 l-54 0 -67 -95 c-37 -52 -72 -97 -77 -100 -5 -4 -9 35 -9 94 l0 101
-50 0 -50 0 0 -245z"/>
<path d="M1068 694 c-58 -31 -77 -127 -36 -179 48 -61 134 -68 188 -13 54 54
49 132 -12 183 -34 29 -97 33 -140 9z"/>
<path d="M1629 687 c-86 -58 -64 -182 39 -218 60 -21 132 22 152 90 21 73 -41
151 -120 151 -22 0 -51 -9 -71 -23z"/>
<path d="M40 135 l0 -125 25 0 c24 0 25 2 25 70 0 39 3 70 8 70 4 0 22 -25 40
-55 20 -32 40 -55 50 -55 10 0 31 23 50 55 18 30 37 55 43 55 5 0 9 -31 9 -70
0 -68 1 -70 25 -70 l25 0 0 125 0 125 -24 0 c-20 0 -34 -15 -73 -80 -26 -44
-50 -80 -53 -80 -3 0 -28 36 -55 80 -38 62 -55 80 -72 80 -23 0 -23 -2 -23
-125z"/>
<path d="M463 250 c-25 -10 -43 -39 -43 -69 0 -27 45 -60 91 -67 48 -8 74 -26
66 -47 -9 -23 -59 -30 -105 -14 -36 12 -42 12 -46 0 -9 -22 1 -31 46 -43 81
-22 158 12 158 69 0 37 -24 57 -90 73 -48 12 -55 17 -55 39 0 23 3 24 62 23
46 -1 64 3 68 14 3 8 3 17 0 20 -10 11 -129 12 -152 2z"/>
<path d="M710 135 l0 -125 25 0 c20 0 25 5 25 27 0 15 10 37 22 50 l22 24 46
-52 c38 -43 50 -50 74 -47 l29 3 -56 65 -56 65 57 58 56 57 -30 0 c-23 0 -43
-13 -89 -60 -32 -32 -62 -57 -67 -54 -4 3 -8 30 -8 60 0 51 -1 54 -25 54 l-25
0 0 -125z"/>
<path d="M1178 245 c-31 -17 -46 -60 -31 -84 12 -20 44 -36 103 -53 33 -10 45
-18 45 -32 0 -30 -47 -41 -100 -24 -38 13 -45 13 -50 1 -8 -22 2 -31 47 -43
81 -22 158 12 158 69 0 37 -23 55 -93 75 -50 15 -58 20 -55 39 3 20 8 22 65
21 46 -1 64 3 68 14 8 22 0 26 -68 29 -42 2 -71 -2 -89 -12z"/>
<path d="M1400 240 c0 -17 6 -20 40 -20 l40 0 0 -105 0 -105 30 0 30 0 0 105
0 105 46 0 c38 0 45 3 42 18 -3 15 -18 17 -116 20 -107 3 -112 2 -112 -18z"/>
<path d="M1733 240 c-99 -60 -74 -198 43 -230 60 -17 112 -1 153 45 75 86 9
205 -113 205 -33 0 -62 -7 -83 -20z m142 -45 c36 -35 35 -96 -1 -124 -15 -12
-41 -21 -59 -21 -50 0 -85 33 -85 81 0 53 35 89 85 89 25 0 44 -8 60 -25z"/>
<path d="M2040 135 l0 -125 30 0 c28 0 30 3 30 35 0 32 2 35 29 35 22 0 37 -9
57 -35 19 -26 34 -35 56 -35 l29 0 -27 35 -26 35 26 31 c44 51 31 110 -29 135
-19 8 -66 14 -105 14 l-70 0 0 -125z m151 75 c12 -7 19 -21 19 -40 0 -35 -23
-50 -74 -50 l-36 0 0 50 0 50 36 0 c19 0 44 -5 55 -10z"/>
<path d="M2350 135 l0 -125 105 0 c98 0 105 1 105 20 0 18 -7 20 -75 20 l-75
0 0 35 0 35 60 0 c47 0 60 3 60 15 0 12 -13 15 -60 15 l-60 0 0 35 0 35 70 0
c63 0 70 2 70 20 0 19 -7 20 -100 20 l-100 0 0 -125z"/>
</g>
</svg>
