<?xml version="1.0" encoding="utf-8"?>
<!-- Generator: Adobe Illustrator 25.2.3, SVG Export Plug-In . SVG Version: 6.00 Build 0)  -->
<svg version="1.1" id="Layer_1" xmlns="http://www.w3.org/2000/svg" xmlns:xlink="http://www.w3.org/1999/xlink" x="0px" y="0px"
	 viewBox="0 0 298.55 278.26" style="enable-background:new 0 0 298.55 278.26;" xml:space="preserve">
<style type="text/css">
	.st0{fill:url(#SVGID_1_);}
	.st1{fill:url(#SVGID_2_);}
	.st2{fill:url(#SVGID_3_);}
	.st3{fill:url(#SVGID_4_);}
	.st4{fill:url(#SVGID_5_);}
	.st5{fill:url(#SVGID_6_);}
	.st6{fill:url(#SVGID_7_);}
	.st7{fill:url(#SVGID_8_);}
	.st8{fill:url(#SVGID_9_);}
	.st9{fill:url(#SVGID_10_);}
	.st10{fill:url(#SVGID_11_);}
	.st11{fill:url(#SVGID_12_);}
	.st12{fill:url(#SVGID_13_);}
	.st13{fill:url(#SVGID_14_);}
</style>
<linearGradient id="SVGID_1_" gradientUnits="userSpaceOnUse" x1="83.2958" y1="50.4234" x2="208.535" y2="175.6626">
	<stop  offset="0" style="stop-color:#EF4023"/>
	<stop  offset="1" style="stop-color:#FEC40D"/>
</linearGradient>
<path class="st0" d="M217.48,127.1l-17.21-11.48c-1.69-1.13-4,0.04-4,2.01v7.01h-81.44L102.9,85.32c-0.58-1.91-2.4-3.22-4.47-3.22
	H68.33c-2.57,0-4.65,2-4.65,4.48s2.08,4.48,4.65,4.48h26.61l11.93,39.32c0.58,1.91,2.4,3.22,4.47,3.22h84.93v7
	c0,1.98,2.31,3.14,4,2.01l17.21-11.48C218.94,130.15,218.94,128.08,217.48,127.1z"/>
<g>
	<linearGradient id="SVGID_2_" gradientUnits="userSpaceOnUse" x1="77.2187" y1="89.1937" x2="187.1567" y2="199.1317">
		<stop  offset="0" style="stop-color:#6666AE"/>
		<stop  offset="1" style="stop-color:#5F5FAA"/>
	</linearGradient>
	<circle class="st1" cx="135.09" cy="147.06" r="8.17"/>
	<linearGradient id="SVGID_3_" gradientUnits="userSpaceOnUse" x1="95.0963" y1="71.3161" x2="205.0343" y2="181.2541">
		<stop  offset="0" style="stop-color:#6666AE"/>
		<stop  offset="1" style="stop-color:#5F5FAA"/>
	</linearGradient>
	<circle class="st2" cx="170.85" cy="147.06" r="8.17"/>
</g>
<g>
	<linearGradient id="SVGID_4_" gradientUnits="userSpaceOnUse" x1="65.8745" y1="176.0123" x2="85.2412" y2="176.0123">
		<stop  offset="0" style="stop-color:#6666AE"/>
		<stop  offset="1" style="stop-color:#5F5FAA"/>
	</linearGradient>
	<path class="st3" d="M81.51,184.22l-0.02-9.84l-5.06,8.11h-1.79l-5.03-7.9v9.63h-3.73v-16.41h3.29l6.43,10.2l6.33-10.2h3.26
		l0.05,16.41H81.51z"/>
	<linearGradient id="SVGID_5_" gradientUnits="userSpaceOnUse" x1="89.5336" y1="176.0123" x2="103.8193" y2="176.0123">
		<stop  offset="0" style="stop-color:#6666AE"/>
		<stop  offset="1" style="stop-color:#5F5FAA"/>
	</linearGradient>
	<path class="st4" d="M89.53,182.6l1.35-2.86c1.45,1.01,3.61,1.71,5.67,1.71c2.36,0,3.31-0.75,3.31-1.76c0-3.07-9.99-0.96-9.99-7.05
		c0-2.79,2.36-5.11,7.24-5.11c2.16,0,4.37,0.49,5.96,1.45l-1.23,2.88c-1.6-0.87-3.24-1.29-4.76-1.29c-2.36,0-3.26,0.84-3.26,1.88
		c0,3.02,9.99,0.94,9.99,6.96c0,2.74-2.38,5.09-7.29,5.09C93.8,184.5,91.06,183.72,89.53,182.6z"/>
	<linearGradient id="SVGID_6_" gradientUnits="userSpaceOnUse" x1="108.1123" y1="176.0123" x2="124.5089" y2="176.0123">
		<stop  offset="0" style="stop-color:#6666AE"/>
		<stop  offset="1" style="stop-color:#5F5FAA"/>
	</linearGradient>
	<path class="st5" d="M114.37,177.77l-2.31,2.3v4.15h-3.95v-16.41h3.95v7.66l7.61-7.66h4.42l-7.12,7.31l7.54,9.09h-4.64
		L114.37,177.77z"/>
	<linearGradient id="SVGID_7_" gradientUnits="userSpaceOnUse" x1="135.011" y1="176.0123" x2="149.2967" y2="176.0123">
		<stop  offset="0" style="stop-color:#6666AE"/>
		<stop  offset="1" style="stop-color:#5F5FAA"/>
	</linearGradient>
	<path class="st6" d="M135.01,182.6l1.35-2.86c1.45,1.01,3.61,1.71,5.67,1.71c2.36,0,3.31-0.75,3.31-1.76
		c0-3.07-9.99-0.96-9.99-7.05c0-2.79,2.36-5.11,7.24-5.11c2.16,0,4.37,0.49,5.96,1.45l-1.23,2.88c-1.6-0.87-3.24-1.29-4.76-1.29
		c-2.36,0-3.26,0.84-3.26,1.88c0,3.02,9.99,0.94,9.99,6.96c0,2.74-2.38,5.09-7.29,5.09C139.28,184.5,136.53,183.72,135.01,182.6z"/>
	<linearGradient id="SVGID_8_" gradientUnits="userSpaceOnUse" x1="151.4056" y1="176.0123" x2="166.3791" y2="176.0123">
		<stop  offset="0" style="stop-color:#6666AE"/>
		<stop  offset="1" style="stop-color:#5F5FAA"/>
	</linearGradient>
	<path class="st7" d="M156.9,170.9h-5.5v-3.09h14.97v3.09h-5.5v13.31h-3.98V170.9z"/>
	<linearGradient id="SVGID_9_" gradientUnits="userSpaceOnUse" x1="168.7579" y1="176.0123" x2="187.5601" y2="176.0123">
		<stop  offset="0" style="stop-color:#6666AE"/>
		<stop  offset="1" style="stop-color:#5F5FAA"/>
	</linearGradient>
	<path class="st8" d="M168.76,176.01c0-4.88,3.98-8.48,9.4-8.48c5.4,0,9.4,3.59,9.4,8.48s-4,8.48-9.4,8.48
		C172.73,184.5,168.76,180.89,168.76,176.01z M183.53,176.01c0-3.12-2.31-5.25-5.38-5.25c-3.07,0-5.38,2.13-5.38,5.25
		s2.31,5.25,5.38,5.25C181.23,181.26,183.53,179.13,183.53,176.01z"/>
	<linearGradient id="SVGID_10_" gradientUnits="userSpaceOnUse" x1="192.1225" y1="176.0123" x2="207.341" y2="176.0123">
		<stop  offset="0" style="stop-color:#6666AE"/>
		<stop  offset="1" style="stop-color:#5F5FAA"/>
	</linearGradient>
	<path class="st9" d="M203.07,184.22l-3.31-4.57h-0.2h-3.46v4.57h-3.98v-16.41h7.44c4.59,0,7.46,2.27,7.46,5.95
		c0,2.46-1.3,4.27-3.53,5.18l3.85,5.27H203.07z M199.34,170.9h-3.24v5.72h3.24c2.43,0,3.66-1.08,3.66-2.86
		C203,171.96,201.77,170.9,199.34,170.9z"/>
	<linearGradient id="SVGID_11_" gradientUnits="userSpaceOnUse" x1="211.7326" y1="176.0123" x2="225.0365" y2="176.0123">
		<stop  offset="0" style="stop-color:#6666AE"/>
		<stop  offset="1" style="stop-color:#5F5FAA"/>
	</linearGradient>
	<path class="st10" d="M225.04,181.17v3.05h-13.3v-16.41h12.98v3.05h-9.03v3.56h7.98v2.95h-7.98v3.8H225.04z"/>
</g>
<g>
	<linearGradient id="SVGID_12_" gradientUnits="userSpaceOnUse" x1="116.374" y1="100.3216" x2="144.2583" y2="100.3216">
		<stop  offset="0" style="stop-color:#6666AE"/>
		<stop  offset="1" style="stop-color:#5F5FAA"/>
	</linearGradient>
	<path class="st11" d="M138.02,116.1l-0.07-16.72l-6.17,13.61h-3.01l-6.13-13.16v16.27h-6.27V84.55h5.58l8.43,18.21l8.22-18.21h5.58
		l0.07,31.55H138.02z"/>
	<linearGradient id="SVGID_13_" gradientUnits="userSpaceOnUse" x1="147.3716" y1="100.3216" x2="168.0967" y2="100.3216">
		<stop  offset="0" style="stop-color:#6666AE"/>
		<stop  offset="1" style="stop-color:#5F5FAA"/>
	</linearGradient>
	<path class="st12" d="M147.37,113.26l2.23-6.58c2.12,1.85,5.14,3.11,7.91,3.11c2.81,0,3.91-1.04,3.91-2.57
		c0-5-13.63-1.35-13.63-13.07c0-5.63,3.49-10.23,10.62-10.23c3.12,0,6.34,0.95,8.7,2.75l-2.09,6.63c-2.29-1.62-4.56-2.43-6.65-2.43
		c-2.84,0-3.87,1.26-3.87,2.84c0,4.82,13.6,1.22,13.6,12.85c0,5.5-3.49,10.19-10.62,10.19
		C153.54,116.73,149.63,115.33,147.37,113.26z"/>
	<linearGradient id="SVGID_14_" gradientUnits="userSpaceOnUse" x1="171.21" y1="100.3216" x2="195.1895" y2="100.3216">
		<stop  offset="0" style="stop-color:#6666AE"/>
		<stop  offset="1" style="stop-color:#5F5FAA"/>
	</linearGradient>
	<path class="st13" d="M180.46,104.65l-2.54,3.56v7.89h-6.71V84.55h6.71v13.12l9.28-13.12h7.47l-9.8,13.97l10.31,17.58h-7.88
		L180.46,104.65z"/>
</g>
</svg>
