<?xml version="1.0" standalone="no"?>
<!DOCTYPE svg PUBLIC "-//W3C//DTD SVG 1.0//EN" "http://www.w3.org/TR/2001/REC-SVG-20010904/DTD/svg10.dtd">
<svg xmlns="http://www.w3.org/2000/svg" xmlns:xlink="http://www.w3.org/1999/xlink" id="body_1" width="5120" height="3840">

<defs>
    <linearGradient transform="matrix(1 0 0 1 0 0)"  id="1" x1="83.2958" y1="50.4234" x2="208.535" y2="175.6626">
        <stop stop-color="#EF4023" offset="0%"/>
        <stop stop-color="#FEC40D" offset="100%"/>
    </linearGradient>
    <linearGradient transform="matrix(1 0 0 1 0 0)"  id="237" x1="77.2187" y1="89.1937" x2="187.1567" y2="199.1317">
        <stop stop-color="#6666AE" offset="0%"/>
        <stop stop-color="#5F5FAA" offset="100%"/>
    </linearGradient>
    <linearGradient transform="matrix(1 0 0 1 0 0)"  id="476" x1="95.0963" y1="71.3161" x2="205.0343" y2="181.2541">
        <stop stop-color="#6666AE" offset="0%"/>
        <stop stop-color="#5F5FAA" offset="100%"/>
    </linearGradient>
    <linearGradient transform="matrix(1 0 0 1 0 0)"  id="715" x1="65.8745" y1="176.0123" x2="85.2412" y2="176.0123">
        <stop stop-color="#6666AE" offset="0%"/>
        <stop stop-color="#5F5FAA" offset="100%"/>
    </linearGradient>
    <linearGradient transform="matrix(1 0 0 1 0 0)"  id="954" x1="89.5336" y1="176.0123" x2="103.8193" y2="176.0123">
        <stop stop-color="#6666AE" offset="0%"/>
        <stop stop-color="#5F5FAA" offset="100%"/>
    </linearGradient>
    <linearGradient transform="matrix(1 0 0 1 0 0)"  id="1194" x1="108.1123" y1="176.0123" x2="124.5089" y2="176.0123">
        <stop stop-color="#6666AE" offset="0%"/>
        <stop stop-color="#5F5FAA" offset="100%"/>
    </linearGradient>
    <linearGradient transform="matrix(1 0 0 1 0 0)"  id="1436" x1="135.011" y1="176.0123" x2="149.2967" y2="176.0123">
        <stop stop-color="#6666AE" offset="0%"/>
        <stop stop-color="#5F5FAA" offset="100%"/>
    </linearGradient>
    <linearGradient transform="matrix(1 0 0 1 0 0)"  id="1677" x1="151.4056" y1="176.0123" x2="166.3791" y2="176.0123">
        <stop stop-color="#6666AE" offset="0%"/>
        <stop stop-color="#5F5FAA" offset="100%"/>
    </linearGradient>
    <linearGradient transform="matrix(1 0 0 1 0 0)"  id="1919" x1="168.7579" y1="176.0123" x2="187.5601" y2="176.0123">
        <stop stop-color="#6666AE" offset="0%"/>
        <stop stop-color="#5F5FAA" offset="100%"/>
    </linearGradient>
    <linearGradient transform="matrix(1 0 0 1 0 0)"  id="2161" x1="192.1225" y1="176.0123" x2="207.341" y2="176.0123">
        <stop stop-color="#6666AE" offset="0%"/>
        <stop stop-color="#5F5FAA" offset="100%"/>
    </linearGradient>
    <linearGradient transform="matrix(1 0 0 1 0 0)"  id="2402" x1="211.7326" y1="176.0123" x2="225.0365" y2="176.0123">
        <stop stop-color="#6666AE" offset="0%"/>
        <stop stop-color="#5F5FAA" offset="100%"/>
    </linearGradient>
    <linearGradient transform="matrix(1 0 0 1 0 0)"  id="2644" x1="116.374" y1="100.3216" x2="144.2583" y2="100.3216">
        <stop stop-color="#6666AE" offset="0%"/>
        <stop stop-color="#5F5FAA" offset="100%"/>
    </linearGradient>
    <linearGradient transform="matrix(1 0 0 1 0 0)"  id="2885" x1="147.3716" y1="100.3216" x2="168.0967" y2="100.3216">
        <stop stop-color="#6666AE" offset="0%"/>
        <stop stop-color="#5F5FAA" offset="100%"/>
    </linearGradient>
    <linearGradient transform="matrix(1 0 0 1 0 0)"  id="3127" x1="171.21" y1="100.3216" x2="195.1895" y2="100.3216">
        <stop stop-color="#6666AE" offset="0%"/>
        <stop stop-color="#5F5FAA" offset="100%"/>
    </linearGradient>
</defs>

<g transform="matrix(13.800044 0 0 13.800044 499.99866 -0)">
    <path d="M217.48 127.1L200.26999 115.619995C 198.57999 114.49 196.26999 115.659996 196.26999 117.63L196.26999 117.63L196.26999 124.64L114.82999 124.64L102.9 85.32C 102.32 83.409996 100.5 82.1 98.43 82.1L98.43 82.1L68.33 82.1C 65.76 82.1 63.68 84.1 63.68 86.58C 63.68 89.060005 65.76 91.060005 68.33 91.060005L68.33 91.060005L94.94 91.060005L106.87 130.38C 107.450005 132.29001 109.270004 133.6 111.340004 133.6L111.340004 133.6L196.27 133.6L196.27 140.6C 196.27 142.58 198.58 143.74 200.27 142.61L200.27 142.61L217.48001 131.13C 218.94 130.15 218.94 128.08 217.48 127.1z" stroke="none" fill="url(#1)" />
	<g>
        <path d="M143.26 147.06C 143.26001 149.31609 142.46236 151.24178 140.86707 152.83707C 139.27177 154.43236 137.34608 155.23 135.09 155.23C 132.83392 155.23 130.90823 154.43236 129.31293 152.83707C 127.71764 151.24178 126.92 149.31609 126.92 147.06C 126.92 144.80392 127.71764 142.87823 129.31293 141.28293C 130.90823 139.68765 132.83392 138.89001 135.09 138.89C 137.34608 138.89001 139.27177 139.68765 140.86707 141.28293C 142.46236 142.87823 143.26001 144.80392 143.26 147.06C 143.26001 147.15508 143.25835 147.25012 143.25502 147.34512" stroke="none" fill="url(#237)" />
        <path d="M179.02 147.06C 179.02 149.31609 178.22237 151.24178 176.62708 152.83707C 175.03178 154.43236 173.1061 155.23 170.85 155.23C 168.59393 155.23 166.66824 154.43236 165.07294 152.83707C 163.47766 151.24178 162.68001 149.31609 162.68001 147.06C 162.68001 144.80392 163.47766 142.87823 165.07294 141.28293C 166.66824 139.68765 168.59393 138.89001 170.85 138.89C 173.1061 138.89001 175.03178 139.68765 176.62708 141.28293C 178.22237 142.87823 179.02 144.80392 179.02 147.06C 179.02 147.15508 179.01834 147.25012 179.01503 147.34512" stroke="none" fill="url(#476)" />
	</g>
	<g>
        <path d="M81.51 184.22L81.490005 174.38L76.43001 182.49L74.64001 182.49L69.61001 174.59001L69.61001 184.22002L65.880005 184.22002L65.880005 167.81001L69.170006 167.81001L75.600006 178.01001L81.93001 167.81001L85.19001 167.81001L85.24001 184.22002L81.51 184.22002L81.51 184.22z" stroke="none" fill="url(#715)" />
        <path d="M89.53 182.6L90.88 179.74C 92.329994 180.75 94.49 181.45001 96.549995 181.45001C 98.909996 181.45001 99.85999 180.70001 99.85999 179.69002C 99.85999 176.62001 89.869995 178.73001 89.869995 172.64001C 89.869995 169.85002 92.229996 167.53001 97.10999 167.53001C 99.27 167.53001 101.479996 168.02002 103.06999 168.98001L103.06999 168.98001L101.83999 171.86002C 100.23999 170.99002 98.59999 170.57002 97.07999 170.57002C 94.719986 170.57002 93.819984 171.41002 93.819984 172.45003C 93.819984 175.47003 103.80998 173.39003 103.80998 179.41003C 103.80998 182.15004 101.429985 184.50003 96.51998 184.50003C 93.8 184.5 91.06 183.72 89.53 182.6z" stroke="none" fill="url(#954)" />
        <path d="M114.37 177.77L112.060005 180.07L112.060005 184.22L108.11001 184.22L108.11001 167.81L112.060005 167.81L112.060005 175.47L119.670006 167.81L124.090004 167.81L116.97 175.12L124.51 184.20999L119.87 184.20999L114.37 177.77z" stroke="none" fill="url(#1194)" />
        <path d="M135.01 182.6L136.36 179.74C 137.81 180.75 139.97 181.45001 142.03 181.45001C 144.39 181.45001 145.34 180.70001 145.34 179.69002C 145.34 176.62001 135.34999 178.73001 135.34999 172.64001C 135.34999 169.85002 137.70999 167.53001 142.59 167.53001C 144.75 167.53001 146.95999 168.02002 148.55 168.98001L148.55 168.98001L147.32 171.86002C 145.72 170.99002 144.08 170.57002 142.56001 170.57002C 140.20001 170.57002 139.30002 171.41002 139.30002 172.45003C 139.30002 175.47003 149.29002 173.39003 149.29002 179.41003C 149.29002 182.15004 146.91002 184.50003 142.00003 184.50003C 139.28 184.5 136.53 183.72 135.01 182.6z" stroke="none" fill="url(#1436)" />
        <path d="M156.9 170.9L151.4 170.9L151.4 167.81L166.37 167.81L166.37 170.9L160.87 170.9L160.87 184.20999L156.89 184.20999L156.89 170.9L156.9 170.9z" stroke="none" fill="url(#1677)" />
        <path d="M168.76 176.01C 168.76 171.12999 172.73999 167.53 178.15999 167.53C 183.55998 167.53 187.55998 171.12 187.55998 176.01C 187.55998 180.9 183.55998 184.48999 178.15999 184.48999C 172.73 184.5 168.76 180.89 168.76 176.01zM183.53 176.01C 183.53 172.89 181.22 170.76 178.15 170.76C 175.07999 170.76 172.76999 172.89 172.76999 176.01C 172.76999 179.12999 175.07999 181.26 178.15 181.26C 181.23 181.26 183.53 179.13 183.53 176.01z" stroke="none" fill="url(#1919)" />
        <path d="M203.07 184.22L199.76001 179.65L199.56001 179.65L196.1 179.65L196.1 184.22L192.12001 184.22L192.12001 167.81L199.56001 167.81C 204.15001 167.81 207.02002 170.08 207.02002 173.76C 207.02002 176.22 205.72002 178.03 203.49002 178.93999L203.49002 178.93999L207.34003 184.20999L203.07 184.20999L203.07 184.22zM199.34 170.9L196.09999 170.9L196.09999 176.62L199.34 176.62C 201.76999 176.62 203 175.54 203 173.76C 203 171.96 201.77 170.9 199.34 170.9z" stroke="none" fill="url(#2161)" />
        <path d="M225.04 181.17L225.04 184.22L211.73999 184.22L211.73999 167.81L224.71999 167.81L224.71999 170.86L215.68999 170.86L215.68999 174.42L223.66998 174.42L223.66998 177.37L215.68999 177.37L215.68999 181.17L225.04 181.17z" stroke="none" fill="url(#2402)" />
	</g>
	<g>
        <path d="M138.02 116.1L137.95 99.38L131.78 112.99L128.77 112.99L122.64001 99.83L122.64001 116.100006L116.37001 116.100006L116.37001 84.55L121.95001 84.55L130.38 102.76L138.6 84.55L144.18001 84.55L144.25002 116.100006L138.02 116.100006L138.02 116.1z" stroke="none" fill="url(#2644)" />
        <path d="M147.37 113.26L149.59999 106.68C 151.71999 108.53 154.73999 109.79 157.51 109.79C 160.31999 109.79 161.42 108.75 161.42 107.22C 161.42 102.22 147.79 105.87 147.79 94.15C 147.79 88.520004 151.28 83.92 158.40999 83.92C 161.52998 83.92 164.74998 84.869995 167.10999 86.67L167.10999 86.67L165.01999 93.299995C 162.73 91.67999 160.45999 90.869995 158.37 90.869995C 155.53 90.869995 154.5 92.13 154.5 93.70999C 154.5 98.52999 168.1 94.92999 168.1 106.55999C 168.1 112.05999 164.61 116.74999 157.48001 116.74999C 153.54 116.73 149.63 115.33 147.37 113.26z" stroke="none" fill="url(#2885)" />
        <path d="M180.46 104.65L177.92001 108.21L177.92001 116.1L171.21 116.1L171.21 84.55L177.92001 84.55L177.92001 97.670006L187.20001 84.55L194.67001 84.55L184.87001 98.520004L195.18001 116.100006L187.3 116.100006L180.46 104.65z" stroke="none" fill="url(#3127)" />
	</g>
</g>
</svg>