<?xml version="1.0" encoding="utf-8"?>
<!-- Generator: Adobe Illustrator 25.2.3, SVG Export Plug-In . SVG Version: 6.00 Build 0)  -->
<svg version="1.1" id="Layer_1" xmlns="http://www.w3.org/2000/svg" xmlns:xlink="http://www.w3.org/1999/xlink" x="0px" y="0px"
	 viewBox="0 0 650 450" style="enable-background:new 0 0 650 450;" xml:space="preserve">
<style type="text/css">
	.st0{fill:#ECEBE4;}
	.st1{fill:#F9F9F7;}
	.st2{fill:#D3D2CD;}
	.st3{fill:#313A52;}
	.st4{fill:url(#SVGID_1_);}
	.st5{fill:#B793EB;}
	.st6{fill:#9C72D4;}
	.st7{fill:url(#SVGID_2_);}
	.st8{fill:url(#SVGID_3_);}
	.st9{fill:url(#SVGID_4_);}
	.st10{fill:url(#SVGID_5_);}
	.st11{fill:url(#SVGID_6_);}
	.st12{fill:url(#SVGID_7_);}
	.st13{fill:url(#SVGID_8_);}
	.st14{fill:url(#SVGID_9_);}
	.st15{fill:#C6C1FD;}
	.st16{fill:#F4F4F4;}
	.st17{fill:#FFFFFF;}
	.st18{fill:#02797D;}
	.st19{fill:#036D6D;}
	.st20{fill:#726AE9;}
	.st21{fill:#CBE1FF;}
	.st22{fill:#C0BEBF;}
	.st23{fill:#D1CFC7;}
	.st24{fill:url(#SVGID_10_);}
	.st25{fill:url(#SVGID_11_);}
	.st26{fill:#303748;}
	.st27{fill:#212835;}
	.st28{fill:#11141B;}
	.st29{fill:#DDB39B;}
	.st30{fill:#EFCCB9;}
	.st31{fill:#FE7A42;}
	.st32{fill:#C64C34;}
	.st33{fill:#552226;}
	.st34{fill:#7A92CE;}
	.st35{fill:#FF8155;}
	.st36{fill:#D55C3E;}
	.st37{fill:#E8A442;}
	.st38{fill:#C14A33;}
	.st39{fill:#EE3F23;}
	.st40{fill:#FDC30D;}
	.st41{fill:url(#SVGID_12_);}
	.st42{fill:#F9CD53;}
	.st43{fill:#FFF6E1;}
	.st44{fill:#DB2C39;}
	.st45{fill:#171B23;}
	.st46{fill:#030405;}
	.st47{fill:#6884BC;}
	.st48{fill:#C64F38;}
	.st49{fill:#FFC88F;}
	.st50{fill:url(#SVGID_13_);}
	.st51{fill:#7068ED;}
	.st52{fill:#EAC4AC;}
	.st53{fill:#191D26;}
	.st54{fill:#0A0C0F;}
	.st55{fill:url(#SVGID_14_);}
	.st56{fill:url(#SVGID_15_);}
	.st57{fill:url(#SVGID_16_);}
	.st58{fill:url(#SVGID_17_);}
	.st59{fill:#FFC554;}
	.st60{fill:url(#SVGID_18_);}
</style>
<g>
	<g>
		<rect x="41.58" y="181.76" class="st0" width="136.69" height="128.13"/>
		<rect x="44.78" y="185.57" class="st1" width="127.55" height="11.3"/>
		<rect x="46.61" y="202.52" class="st1" width="48.46" height="101.95"/>
		<rect x="50.72" y="268.62" class="st2" width="37.94" height="29.62"/>
		<rect x="50.72" y="210.25" class="st2" width="37.94" height="4.19"/>
		<rect x="50.72" y="219.67" class="st2" width="37.94" height="4.18"/>
		<rect x="50.72" y="230.97" class="st2" width="37.94" height="4.18"/>
		<rect x="50.72" y="240.38" class="st2" width="37.94" height="4.19"/>
		<rect x="108.78" y="202.52" class="st2" width="63.54" height="5.02"/>
		<rect x="108.78" y="211.93" class="st2" width="63.54" height="5.02"/>
		<rect x="108.78" y="223.23" class="st2" width="63.54" height="5.02"/>
		<rect x="108.78" y="235.15" class="st1" width="63.54" height="66.36"/>
		<rect x="114.27" y="242.47" class="st2" width="53.94" height="29.87"/>
		<rect x="46.61" y="188.39" class="st2" width="69.26" height="5.33"/>
		<rect x="142.38" y="188.39" class="st2" width="27.43" height="5.33"/>
	</g>
	<ellipse class="st3" cx="325" cy="333.94" rx="308.16" ry="16.12"/>
	<g>
		<rect x="251.38" y="116.33" class="st3" width="312.67" height="213.48"/>
		<linearGradient id="SVGID_1_" gradientUnits="userSpaceOnUse" x1="258.6963" y1="132.0806" x2="550.4541" y2="132.0806">
			<stop  offset="0" style="stop-color:#6666AD"/>
			<stop  offset="1" style="stop-color:#5E5FA9"/>
		</linearGradient>
		<rect x="258.7" y="122.67" class="st4" width="291.76" height="18.82"/>
		<rect x="262.88" y="150.91" class="st5" width="110.85" height="169.86"/>
		<rect x="272.29" y="261.06" class="st6" width="86.79" height="49.35"/>
		<rect x="272.29" y="163.8" class="st6" width="86.79" height="6.97"/>
		<rect x="272.29" y="179.49" class="st6" width="86.79" height="6.97"/>
		<rect x="272.29" y="198.31" class="st6" width="86.79" height="6.97"/>
		<rect x="272.29" y="214" class="st6" width="86.79" height="6.97"/>
		<linearGradient id="SVGID_2_" gradientUnits="userSpaceOnUse" x1="405.0977" y1="155.086" x2="550.4541" y2="155.086">
			<stop  offset="0" style="stop-color:#6666AD"/>
			<stop  offset="1" style="stop-color:#5E5FA9"/>
		</linearGradient>
		<rect x="405.1" y="150.91" class="st7" width="145.36" height="8.36"/>
		<linearGradient id="SVGID_3_" gradientUnits="userSpaceOnUse" x1="405.0977" y1="170.7749" x2="550.4541" y2="170.7749">
			<stop  offset="0" style="stop-color:#6666AD"/>
			<stop  offset="1" style="stop-color:#5E5FA9"/>
		</linearGradient>
		<rect x="405.1" y="166.59" class="st8" width="145.36" height="8.37"/>
		<linearGradient id="SVGID_4_" gradientUnits="userSpaceOnUse" x1="405.0977" y1="189.5953" x2="550.4541" y2="189.5953">
			<stop  offset="0" style="stop-color:#6666AD"/>
			<stop  offset="1" style="stop-color:#5E5FA9"/>
		</linearGradient>
		<rect x="405.1" y="185.41" class="st9" width="145.36" height="8.37"/>
		<linearGradient id="SVGID_5_" gradientUnits="userSpaceOnUse" x1="405.0977" y1="260.562" x2="550.4541" y2="260.562">
			<stop  offset="0" style="stop-color:#6666AD"/>
			<stop  offset="1" style="stop-color:#5E5FA9"/>
		</linearGradient>
		<rect x="405.1" y="205.28" class="st10" width="145.36" height="110.56"/>
		<rect x="417.65" y="217.48" class="st3" width="123.39" height="49.75"/>
		<rect x="262.88" y="127.38" class="st3" width="158.42" height="8.89"/>
		<rect x="481.96" y="127.38" class="st3" width="62.74" height="8.89"/>
	</g>
	<g>
		<rect x="55.29" y="201.84" class="st3" width="187.49" height="128.01"/>
		<linearGradient id="SVGID_6_" gradientUnits="userSpaceOnUse" x1="59.6763" y1="211.2881" x2="234.6265" y2="211.2881">
			<stop  offset="0" style="stop-color:#6666AD"/>
			<stop  offset="1" style="stop-color:#5E5FA9"/>
		</linearGradient>
		<rect x="59.68" y="205.64" class="st11" width="174.95" height="11.29"/>
		<linearGradient id="SVGID_7_" gradientUnits="userSpaceOnUse" x1="62.1851" y1="273.503" x2="128.6538" y2="273.503">
			<stop  offset="0" style="stop-color:#6666AD"/>
			<stop  offset="1" style="stop-color:#5E5FA9"/>
		</linearGradient>
		<rect x="62.19" y="222.58" class="st12" width="66.47" height="101.85"/>
		<rect x="67.83" y="288.63" class="st3" width="52.04" height="29.59"/>
		<rect x="67.83" y="230.31" class="st3" width="52.04" height="4.18"/>
		<rect x="67.83" y="239.72" class="st3" width="52.04" height="4.18"/>
		<rect x="67.83" y="251" class="st6" width="52.04" height="4.18"/>
		<rect x="67.83" y="260.41" class="st3" width="52.04" height="4.18"/>
		<rect x="147.47" y="222.58" class="st3" width="87.16" height="5.01"/>
		<linearGradient id="SVGID_8_" gradientUnits="userSpaceOnUse" x1="147.4653" y1="234.4907" x2="234.6265" y2="234.4907">
			<stop  offset="0" style="stop-color:#6666AD"/>
			<stop  offset="1" style="stop-color:#5E5FA9"/>
		</linearGradient>
		<rect x="147.47" y="231.98" class="st13" width="87.16" height="5.02"/>
		<rect x="147.47" y="243.27" class="st5" width="87.16" height="5.02"/>
		<linearGradient id="SVGID_9_" gradientUnits="userSpaceOnUse" x1="147.4653" y1="288.3311" x2="234.6265" y2="288.3311">
			<stop  offset="0" style="stop-color:#6666AD"/>
			<stop  offset="1" style="stop-color:#5E5FA9"/>
		</linearGradient>
		<rect x="147.47" y="255.18" class="st14" width="87.16" height="66.29"/>
		<rect x="154.99" y="262.5" class="st3" width="73.99" height="29.83"/>
		<rect x="62.19" y="208.47" class="st3" width="95" height="5.33"/>
		<rect x="193.55" y="208.47" class="st6" width="37.62" height="5.33"/>
	</g>
	<g>
		<path class="st3" d="M303.31,79.97c-1.8,0-3.54,0.3-5.22,0.82c-3.44-6.02-8.86-9.92-14.98-9.92c-3.88,0-7.49,1.57-10.49,4.25
			c-1.08-10.62-7.9-18.82-16.18-18.82c-8.89,0-16.11,9.46-16.32,21.24c-2.89-2.04-6.18-3.21-9.68-3.21
			c-9.75,0-17.91,9.01-20.09,21.1c-1.48-0.64-3.06-1-4.7-1c-6.88,0-12.69,6.1-14.55,14.46h135.18
			C325.59,92.77,315.58,79.97,303.31,79.97z"/>
	</g>
	<g>
		<g>
			<g>
				<path class="st15" d="M234.89,144.7c-1.8,0-3.54,0.3-5.22,0.82c-3.44-6.02-8.86-9.92-14.98-9.92c-3.88,0-7.49,1.57-10.49,4.25
					c-1.08-10.62-7.9-18.82-16.18-18.82c-8.89,0-16.11,9.46-16.32,21.24c-2.89-2.04-6.18-3.21-9.68-3.21
					c-9.75,0-17.91,9.01-20.09,21.1c-1.48-0.64-3.06-1-4.7-1c-6.88,0-12.69,6.1-14.55,14.46h135.18
					C257.18,157.49,247.17,144.7,234.89,144.7z"/>
			</g>
		</g>
	</g>
	<g>
		<path class="st16" d="M374.8,99.69c-1.4,0-2.75,0.23-4.06,0.64c-2.67-4.68-6.88-7.71-11.64-7.71c-3.02,0-5.82,1.22-8.15,3.3
			c-0.84-8.25-6.14-14.62-12.57-14.62c-6.91,0-12.52,7.35-12.68,16.5c-2.24-1.59-4.79-2.49-7.52-2.49c-7.58,0-13.91,7-15.61,16.39
			c-1.15-0.5-2.38-0.78-3.65-0.78c-5.35,0-9.86,4.74-11.31,11.23h105.03C392.12,109.63,384.34,99.69,374.8,99.69z"/>
		<path class="st17" d="M338.39,81.29c-6.91,0-12.52,7.35-12.68,16.5c-2.24-1.59-4.79-2.49-7.52-2.49c-7.58,0-13.91,7-15.61,16.39
			c-1.15-0.5-2.38-0.78-3.65-0.78c-5.35,0-9.86,4.74-11.31,11.23h21.24c2.63-3.09,4.39-6.86,4.93-10.98
			c4.34,2.4,9.45,3.79,14.93,3.79c14.46,0,26.38-9.65,28.11-22.11c-2.15,0.45-4.14,1.52-5.88,3.07
			C350.12,87.66,344.82,81.29,338.39,81.29z"/>
	</g>
	<g>
		<g>
			<g>
				<rect x="586.73" y="128.9" class="st3" width="9.55" height="6.97"/>
			</g>
		</g>
		<g>
			<g>
				<rect x="588.45" y="145.8" class="st3" width="7.83" height="28.26"/>
			</g>
		</g>
	</g>
	<g>
		<g>
			<rect x="443.03" y="89.78" class="st3" width="5.52" height="7.56"/>
		</g>
		<g>
			<g>
				<rect x="456.41" y="89.78" class="st3" width="22.38" height="6.2"/>
			</g>
		</g>
	</g>
	<g>
		<g>
			<rect x="44.58" y="77.57" class="st3" width="11.66" height="8.52"/>
		</g>
		<g>
			<rect x="46.68" y="98.21" class="st3" width="9.56" height="34.53"/>
		</g>
	</g>
	<g>
		<path class="st18" d="M584.26,306.58c0,0-38.23-26.61-26.69-61.54C557.57,245.04,583.11,273.03,584.26,306.58z"/>
		<path class="st18" d="M589.4,309.36c0,0,40.23-38.22,20.35-77.29C609.76,232.07,584.72,269.63,589.4,309.36z"/>
		<path class="st19" d="M582.68,309.36c0,0,32.46-45.01,5.69-79.73C588.37,229.63,570.72,271.19,582.68,309.36z"/>
		<polygon class="st20" points="603.13,335.81 574.08,335.69 565.54,299.63 612.1,299.63 		"/>
	</g>
	<g>
		<path class="st17" d="M460.61,315.85c0,2.93-2.37,5.31-5.3,5.31H188.79c-2.93,0-5.31-2.38-5.31-5.31V156.12
			c0-2.93,2.38-5.3,5.31-5.3H455.3c2.94,0,5.3,2.38,5.3,5.3V315.85z"/>
		<rect x="199.46" y="168.07" class="st21" width="245.16" height="137.17"/>
		<path class="st22" d="M170.09,329h309.81c3.12,0,5.66-2.53,5.66-5.66v-10.02H164.43v10.02C164.43,326.47,166.96,329,170.09,329z"
			/>
		<g>
			<rect x="213.97" y="181.49" class="st0" width="215.42" height="123.74"/>
			<rect x="219.02" y="185.16" class="st1" width="201.01" height="10.91"/>
			<rect x="221.9" y="201.54" class="st1" width="76.37" height="98.46"/>
			<rect x="228.39" y="265.38" class="st2" width="59.8" height="28.61"/>
			<rect x="228.39" y="209.01" class="st2" width="59.8" height="4.04"/>
			<rect x="228.39" y="218.1" class="st2" width="59.8" height="4.04"/>
			<rect x="228.39" y="229.01" class="st2" width="59.8" height="4.04"/>
			<rect x="228.39" y="238.1" class="st2" width="59.8" height="4.04"/>
			<rect x="319.88" y="201.54" class="st2" width="100.14" height="4.85"/>
			<rect x="319.88" y="210.62" class="st2" width="100.14" height="4.85"/>
			<rect x="319.88" y="221.53" class="st2" width="100.14" height="4.85"/>
			<rect x="319.88" y="233.05" class="st1" width="100.14" height="64.09"/>
			<rect x="328.53" y="240.12" class="st2" width="85.01" height="28.84"/>
			<rect x="221.9" y="187.89" class="st2" width="109.15" height="5.15"/>
			<rect x="372.84" y="187.89" class="st2" width="43.22" height="5.15"/>
		</g>
	</g>
	<g>
		<path class="st0" d="M572.62,153.85c0,3.84-3.12,6.95-6.95,6.95h-15c-3.84,0-6.95-3.12-6.95-6.95v-11.04
			c0-3.84,3.11-6.96,6.95-6.96h15c3.84,0,6.95,3.11,6.95,6.96V153.85z"/>
		<path class="st0" d="M572.62,152.76c0,0,0.99,17.85-15.11,15.76c0,0,12.39-5.46,7.07-14.89L572.62,152.76z"/>
		<rect x="547.97" y="143.37" class="st23" width="20.34" height="1.88"/>
		<rect x="547.97" y="147.12" class="st23" width="20.34" height="1.88"/>
		<rect x="547.97" y="150.88" class="st23" width="20.34" height="1.88"/>
		<linearGradient id="SVGID_10_" gradientUnits="userSpaceOnUse" x1="481.5918" y1="156.6509" x2="518.5703" y2="156.6509">
			<stop  offset="0" style="stop-color:#EE3F23"/>
			<stop  offset="1" style="stop-color:#FDC30D"/>
		</linearGradient>
		<path class="st24" d="M481.59,163.71c0,4.91,3.98,8.89,8.9,8.89h19.19c4.91,0,8.9-3.98,8.9-8.89v-14.13c0-4.91-3.98-8.89-8.9-8.89
			h-19.19c-4.91,0-8.9,3.98-8.9,8.89V163.71z"/>
		<linearGradient id="SVGID_11_" gradientUnits="userSpaceOnUse" x1="481.5765" y1="172.5085" x2="500.9287" y2="172.5085">
			<stop  offset="0" style="stop-color:#EE3F23"/>
			<stop  offset="1" style="stop-color:#FDC30D"/>
		</linearGradient>
		<path class="st25" d="M481.59,162.32c0,0-1.27,22.83,19.34,20.16c0,0-21.58-6.36-9.04-19.05L481.59,162.32z"/>
		<rect x="487.1" y="150.31" class="st3" width="26.02" height="2.41"/>
		<rect x="487.1" y="155.12" class="st3" width="26.02" height="2.4"/>
		<rect x="487.1" y="159.92" class="st3" width="26.02" height="2.4"/>
		<path class="st26" d="M580.18,189.58c0,2.01-1.63,3.63-3.64,3.63h-7.84c-2.01,0-3.63-1.63-3.63-3.63v-5.77
			c0-2.01,1.62-3.63,3.63-3.63h7.84c2.01,0,3.64,1.63,3.64,3.63V189.58z"/>
		<path class="st26" d="M580.18,189.01c0,0,0.52,9.33-7.9,8.24c0,0,8.82-2.6,3.69-7.78L580.18,189.01z"/>
		<rect x="567.3" y="184.1" class="st27" width="10.63" height="0.98"/>
		<rect x="567.3" y="186.07" class="st27" width="10.63" height="0.98"/>
		<rect x="567.3" y="188.03" class="st27" width="10.63" height="0.98"/>
	</g>
	<g>
		<g>
			<path class="st28" d="M527.03,222.31c0,0,3.39,1.34,3.53,3.77c0.14,2.43,0.83,3.89,3.2,6.19c2.37,2.3,6.01,6.28,5.06,8.95
				c-1.53,4.26,1.07,7.1-0.55,9.26c-1.62,2.16-4.47,0.47-5.17-0.95c-0.71-1.42-6.51-8.72-7.13-11.16c-0.62-2.44-3.83-1.46-4.77-3.22
				c-0.94-1.75,0.23-4.06-0.17-5.03c-1.49-3.55,0.43-6.01,2.58-7.54C525.76,221.08,527.03,222.31,527.03,222.31z"/>
		</g>
		<g>
			<path class="st29" d="M509.75,265.76l12.43,2.11l-5.57,28.47c0,0,3.63,6.99,3.56,22.19l0.38,13.34l-2.29,0.46l-6.99-35.71
				C511.27,296.63,508.33,279.27,509.75,265.76z"/>
		</g>
		<g>
			<path class="st30" d="M516.78,267.87l12.45,2.53l-6.19,26.03c0,0,4.79,6.26,7.32,21.24l2.67,13.09l-2.18,0.84l-13.02-33.97
				C517.83,297.62,514.67,278.63,516.78,267.87z"/>
		</g>
		<g>
			<g>
				<path class="st31" d="M485.67,226.08c0,0-2.02-4.12-3.07-4.23c-0.88-0.09-4.11,1.05,1.66,5.42L485.67,226.08z"/>
			</g>
			<g>
				<path class="st32" d="M517.86,241.18l-18.81,8.8l-15.42-22.93l1.92-1.79l14.48,16.14l17.23-6.62c0,0,5.62-2.69,7.12,1.2
					C524.37,235.98,521.72,239.37,517.86,241.18z"/>
			</g>
		</g>
		<g>
			<path class="st33" d="M532.18,236.29c0,0,2.08,2.69,2.42,8.65c0.33,5.95-3.31,13.23-3.31,13.23l-2.27,13.17l-19.26-5.57
				l0.56-13.9l3.29-3.53l-1.17-4.38l7.75-11.6L532.18,236.29z"/>
		</g>
		<g>
			<polygon class="st34" points="521.15,331.02 517.55,330.66 517.37,333.46 516.62,334.59 511.02,338.24 512.36,338.21 
				517.68,337.26 518.12,337.65 520.08,337.58 			"/>
		</g>
		<g>
			<polygon class="st34" points="533.01,328.53 529.28,330.3 530.5,332.83 530.32,334.23 526.59,340.63 527.9,339.83 532.69,335.94 
				533.32,336.03 535.23,334.84 			"/>
		</g>
		<g>
			<path class="st31" d="M526.36,229.63l1.36,5.1c0,0-6.31,4.53-5.69,1.98c0.58-2.37,0.92-7.08,0.92-7.08H526.36z"/>
		</g>
		<g>
			<path class="st35" d="M527.51,222.99c0.43,1.08,1.29,3.18,0.68,4.6c-0.61,1.42-1.52,3.96-3.14,4.56
				c-1.62,0.61-2.05-1.22-2.4-1.83c-0.35-0.61-1.2-6.58,1.4-8.02C526.03,221.24,527.18,222.18,527.51,222.99z"/>
		</g>
		<g>
			<path class="st28" d="M525.01,223.65c0,0,1.49,3.17,3.65,3.82c0,0,0.34-5-2.7-5.63c0,0-3.66-0.23-3.99,4.31
				C521.97,226.15,524.81,225.21,525.01,223.65z"/>
		</g>
		<g>
			<path class="st26" d="M549.46,273.98c0.95,0.92,0.97,2.45,0.05,3.4l-18.73,19.24c-0.92,0.95-2.45,0.97-3.4,0.05l-35.86-34.9
				c-0.95-0.93-0.97-2.45-0.04-3.4l18.73-19.24c0.93-0.95,2.45-0.97,3.4-0.04L549.46,273.98z"/>
			
				<rect x="505.54" y="244.58" transform="matrix(0.6976 -0.7164 0.7164 0.6976 -33.9927 452.2936)" class="st0" width="26.65" height="43.67"/>
			<path class="st26" d="M521.49,261.58c2.24,2.18,2.29,5.76,0.11,8c-2.18,2.24-5.76,2.28-8,0.1c-2.24-2.18-2.29-5.76-0.11-8
				C515.66,259.44,519.25,259.39,521.49,261.58z"/>
			<polygon class="st0" points="517.78,268.37 514.79,265.46 519.43,263.69 			"/>
			<path class="st0" d="M538.77,282.52c0.89,0.87,0.91,2.29,0.04,3.19c-0.87,0.89-2.3,0.91-3.19,0.04
				c-0.89-0.86-0.91-2.29-0.04-3.19C536.46,281.67,537.88,281.65,538.77,282.52z"/>
		</g>
		<g>
			<g>
				<path class="st31" d="M509.23,269.66c0,0-4.59,0.19-5.1,1.12c-0.44,0.77-0.69,4.18,5.62,0.66L509.23,269.66z"/>
			</g>
			<g>
				<g>
					<path class="st36" d="M535.17,244.68l1.14,20.71l-26.97,6.51l-0.64-2.24l19.95-8.24l-0.02-18.46c0,0-0.5-6.21,3.66-6.21
						C532.29,236.74,534.86,240.43,535.17,244.68z"/>
				</g>
			</g>
		</g>
	</g>
	<g>
		<ellipse class="st37" cx="197.71" cy="205.28" rx="6.67" ry="6.87"/>
		<ellipse class="st38" cx="211.66" cy="205.64" rx="7.28" ry="7.5"/>
		<path class="st38" d="M245.81,205.64c0,3.85-3.03,6.97-6.77,6.97c-3.74,0-6.77-3.12-6.77-6.97c0-3.85,3.03-6.97,6.77-6.97
			C242.78,198.68,245.81,201.8,245.81,205.64z"/>
		<path class="st38" d="M273.71,205.64c0,4.14-3.26,7.5-7.28,7.5c-4.02,0-7.28-3.36-7.28-7.5c0-4.14,3.26-7.5,7.28-7.5
			C270.45,198.14,273.71,201.5,273.71,205.64z"/>
		<path class="st38" d="M301.61,206.28c0,4.14-3.26,7.5-7.28,7.5c-4.02,0-7.28-3.36-7.28-7.5s3.26-7.5,7.28-7.5
			C298.35,198.78,301.61,202.14,301.61,206.28z"/>
		<path class="st38" d="M329.5,205.05c0,4.14-3.26,7.5-7.28,7.5c-4.02,0-7.28-3.36-7.28-7.5c0-4.14,3.26-7.5,7.28-7.5
			C326.24,197.55,329.5,200.91,329.5,205.05z"/>
		<path class="st38" d="M356.37,205.28c0,3.85-3.03,6.97-6.76,6.97c-3.74,0-6.77-3.12-6.77-6.97c0-3.85,3.03-6.97,6.77-6.97
			C353.34,198.32,356.37,201.44,356.37,205.28z"/>
		<path class="st38" d="M384.27,205.28c0,4.14-3.26,7.5-7.28,7.5c-4.02,0-7.28-3.36-7.28-7.5c0-4.14,3.26-7.5,7.28-7.5
			C381.01,197.78,384.27,201.14,384.27,205.28z"/>
		<path class="st38" d="M410.95,205.29c0,3.8-2.99,6.87-6.67,6.87s-6.67-3.08-6.67-6.87s2.99-6.87,6.67-6.87
			S410.95,201.5,410.95,205.29z"/>
		<path class="st38" d="M439.03,205.64c0,4.14-3.26,7.5-7.28,7.5c-4.02,0-7.28-3.36-7.28-7.5c0-4.14,3.26-7.5,7.28-7.5
			C435.77,198.14,439.03,201.5,439.03,205.64z"/>
		<ellipse class="st37" cx="225.61" cy="205.64" rx="6.67" ry="6.87"/>
		<ellipse class="st37" cx="252.48" cy="205.64" rx="6.67" ry="6.87"/>
		<ellipse class="st37" cx="280.38" cy="205.64" rx="6.67" ry="6.87"/>
		<path class="st37" d="M314.94,205.64c0,3.79-2.98,6.87-6.67,6.87c-3.68,0-6.67-3.07-6.67-6.87c0-3.79,2.98-6.87,6.67-6.87
			C311.96,198.78,314.94,201.85,314.94,205.64z"/>
		<path class="st37" d="M342.84,205.05c0,3.79-2.99,6.87-6.67,6.87c-3.68,0-6.67-3.07-6.67-6.87c0-3.79,2.98-6.87,6.67-6.87
			C339.85,198.18,342.84,201.26,342.84,205.05z"/>
		<path class="st37" d="M369.7,205.28c0,3.79-2.99,6.87-6.67,6.87c-3.68,0-6.67-3.07-6.67-6.87c0-3.79,2.98-6.87,6.67-6.87
			C366.72,198.42,369.7,201.49,369.7,205.28z"/>
		<path class="st37" d="M397.6,205.64c0,3.79-2.99,6.87-6.67,6.87c-3.68,0-6.67-3.07-6.67-6.87c0-3.79,2.98-6.87,6.67-6.87
			C394.62,198.78,397.6,201.85,397.6,205.64z"/>
		<path class="st37" d="M424.47,205.64c0,3.79-2.99,6.87-6.67,6.87c-3.68,0-6.67-3.07-6.67-6.87c0-3.79,2.98-6.87,6.67-6.87
			C421.48,198.78,424.47,201.85,424.47,205.64z"/>
		<path class="st37" d="M452.37,205.64c0,3.79-2.99,6.87-6.67,6.87c-3.68,0-6.67-3.07-6.67-6.87c0-3.79,2.98-6.87,6.67-6.87
			C449.38,198.78,452.37,201.85,452.37,205.64z"/>
		<g>
			<rect x="191.05" y="169.16" class="st39" width="253.82" height="36.49"/>
			<rect x="191.05" y="169.16" class="st40" width="13.33" height="36.49"/>
			<rect x="218.94" y="169.16" class="st40" width="13.33" height="36.49"/>
			<rect x="245.81" y="169.16" class="st40" width="13.33" height="36.49"/>
			<rect x="273.71" y="169.16" class="st40" width="13.33" height="36.49"/>
			<rect x="301.61" y="169.16" class="st40" width="13.33" height="36.49"/>
			<rect x="329.5" y="169.16" class="st40" width="13.33" height="36.49"/>
			<rect x="356.37" y="169.16" class="st40" width="13.33" height="36.49"/>
			<rect x="384.27" y="169.16" class="st40" width="13.33" height="36.49"/>
			<rect x="411.13" y="169.16" class="st40" width="13.33" height="36.49"/>
			<rect x="439.03" y="169.16" class="st40" width="13.33" height="36.49"/>
		</g>
	</g>
	<g>
		<g>
			<g>
				<path class="st31" d="M463.72,255.4l-8.1,12.91l-18.94-7.53l0.57-1.62l15.46,3.51l7.81-11.08c0,0,2.33-3.94,4.83-2.18
					C465.36,249.42,465.33,252.72,463.72,255.4z"/>
			</g>
			<g>
				<path class="st31" d="M437.57,259.42c0,0-2.67-2.06-3.4-1.79c-0.61,0.23-2.36,2.02,2.85,3.03L437.57,259.42z"/>
			</g>
		</g>
		<g>
			<g>
				<linearGradient id="SVGID_12_" gradientUnits="userSpaceOnUse" x1="377.5479" y1="253.0718" x2="444.2451" y2="253.0718">
					<stop  offset="0" style="stop-color:#EE3F23"/>
					<stop  offset="1" style="stop-color:#FDC30D"/>
				</linearGradient>
				<path class="st41" d="M444.25,253.07c0,18.42-14.93,33.35-33.35,33.35s-33.35-14.93-33.35-33.35
					c0-18.42,14.93-33.35,33.35-33.35S444.25,234.65,444.25,253.07z"/>
			</g>
			<g>
				<path class="st40" d="M440.47,253.15c0,16.33-13.24,29.57-29.57,29.57c-16.33,0-29.57-13.24-29.57-29.57
					c0-16.33,13.24-29.57,29.57-29.57C427.23,223.58,440.47,236.82,440.47,253.15z"/>
			</g>
			<g>
				<path class="st42" d="M433.28,253.15c0,12.36-10.02,22.38-22.38,22.38c-12.36,0-22.38-10.02-22.38-22.38
					c0-12.37,10.02-22.38,22.38-22.38C423.26,230.77,433.28,240.79,433.28,253.15z"/>
			</g>
			<g>
				<g>
					<path class="st43" d="M408.92,271.43v-4.23c-2.98-0.13-5.88-0.93-7.57-1.92l1.34-5.21c1.87,1.02,4.5,1.96,7.39,1.96
						c2.54,0,4.28-0.98,4.28-2.76c0-1.69-1.43-2.76-4.72-3.88c-4.77-1.6-8.02-3.83-8.02-8.15c0-3.92,2.76-7,7.53-7.93v-4.23h4.37
						V239c2.99,0.14,4.99,0.76,6.46,1.47l-1.29,5.03c-1.16-0.49-3.21-1.51-6.42-1.51c-2.9,0-3.83,1.25-3.83,2.49
						c0,1.47,1.56,2.41,5.35,3.83c5.3,1.87,7.44,4.32,7.44,8.33c0,3.96-2.81,7.35-7.93,8.24v4.54H408.92z"/>
				</g>
			</g>
		</g>
		<g>
			<g>
				<path class="st31" d="M441.21,251.51l-8.09,12.92l-18.94-7.53l0.57-1.62l15.46,3.51l7.81-11.08c0,0,2.33-3.94,4.83-2.18
					C442.85,245.53,442.83,248.83,441.21,251.51z"/>
			</g>
			<g>
				<path class="st31" d="M415.07,255.53c0,0-2.67-2.06-3.4-1.79c-0.61,0.23-2.37,2.03,2.85,3.03L415.07,255.53z"/>
			</g>
		</g>
		<g>
			<polygon class="st44" points="458.02,337.93 456.94,338.02 456.75,339.69 456.35,340.42 453.34,342.88 458.77,341.11 			"/>
		</g>
		<g>
			<polygon class="st44" points="461.92,335.01 461.06,335.69 461.83,337.18 461.9,338.01 460.74,341.72 464.3,337.25 			"/>
		</g>
		<g>
			<g>
				<g>
					<polygon class="st20" points="463.31,277.89 460.25,311.53 459.16,339.27 456.54,339.27 453.92,310.44 450.64,277.89 					"/>
				</g>
			</g>
		</g>
		<g>
			<polygon class="st20" points="439.28,277.89 440.15,308.58 460.69,336.65 463.31,335.34 449.11,310 454.13,279.63 454.13,277.89 
							"/>
		</g>
		<g>
			<polygon class="st45" points="463.31,277.89 439.28,277.89 441.9,261.07 441.9,244.24 451.47,242.32 463.31,243.41 
				463.31,259.65 			"/>
		</g>
		<g>
			<path class="st45" d="M442.89,244.33c0,0,3.91,2.23-2.66,9.36l-3.9-4.21C436.33,249.48,439.26,243.45,442.89,244.33z"/>
		</g>
		<g>
			<path class="st45" d="M462.62,243.35c0,0,4.46-0.62,3.6,9.05l-5.65-0.96C460.56,251.43,459.2,244.87,462.62,243.35z"/>
		</g>
		<g>
			<g>
				<path class="st31" d="M453.48,243.34c0.05,0.85-3.35,0.85-3.38,0c-0.11-2.45,0.32-4.26,0.32-4.26l2.51-0.93
					C452.94,238.16,453.38,241.57,453.48,243.34z"/>
			</g>
			<g>
				<path class="st31" d="M450.86,240.45c-0.23,0.03-2.35,0.38-2.67-0.66c-0.33-1.04-0.22-4.86,0.27-5.79
					c0.49-0.93,2.13-1.48,2.89-1.15c0.77,0.33,2.83,2.52,1.69,6.29C453.04,239.15,452.11,240.32,450.86,240.45z"/>
			</g>
			<g>
				<path class="st45" d="M448,234.01c0,0,0.19,1.31,1.12,1.2c0.93-0.11,2.51-0.38,2.68,0.33c0.16,0.71-0.51,3.12,0,3.71
					c0.5,0.59,1.74,1.31,2.02,0.44c0.28-0.88,0.82-6.28-2.02-7.54C451.79,232.15,448.96,231.55,448,234.01z"/>
			</g>
		</g>
	</g>
	<g>
		<rect x="174.96" y="294.82" class="st28" width="104.05" height="19.05"/>
		<rect x="226.13" y="294.82" class="st46" width="52.88" height="19.05"/>
		<rect x="177.89" y="297.75" class="st0" width="101.12" height="13.19"/>
		<rect x="226.13" y="297.75" class="st2" width="52.88" height="13.19"/>
		<rect x="270.1" y="294.82" class="st46" width="13.19" height="2.93"/>
		<rect x="270.1" y="310.94" class="st46" width="13.19" height="2.93"/>
		<g>
			<rect x="184.48" y="281.18" class="st34" width="104.05" height="13.64"/>
			<rect x="235.65" y="281.18" class="st47" width="52.88" height="13.64"/>
			<rect x="187.42" y="283.28" class="st0" width="101.12" height="9.44"/>
			<rect x="235.65" y="283.28" class="st2" width="52.88" height="9.44"/>
			<rect x="279.62" y="281.18" class="st47" width="13.19" height="2.1"/>
			<rect x="279.62" y="292.72" class="st47" width="13.19" height="2.1"/>
		</g>
		<g>
			<rect x="218.68" y="247.6" class="st30" width="73.2" height="13.64"/>
			<rect x="254.68" y="247.6" class="st29" width="37.2" height="13.64"/>
			<rect x="220.74" y="249.7" class="st0" width="71.14" height="9.44"/>
			<rect x="254.68" y="249.7" class="st2" width="37.2" height="9.44"/>
			<rect x="285.6" y="247.6" class="st29" width="9.28" height="2.1"/>
			<rect x="285.6" y="259.14" class="st29" width="9.28" height="2.1"/>
		</g>
		<g>
			<rect x="194.18" y="261.24" class="st36" width="81.06" height="19.94"/>
			<rect x="234.05" y="261.24" class="st48" width="41.2" height="19.94"/>
			<rect x="196.47" y="264.31" class="st0" width="78.77" height="13.81"/>
			<rect x="234.05" y="264.31" class="st2" width="41.2" height="13.81"/>
			<rect x="268.29" y="261.24" class="st48" width="10.27" height="3.07"/>
			<rect x="268.29" y="278.11" class="st48" width="10.27" height="3.07"/>
		</g>
	</g>
	<g>
		<g>
			<polygon class="st45" points="309.21,273.25 310.95,271.68 313.9,273.77 315.64,274.21 324,273.03 313.18,278.96 			"/>
		</g>
		<g>
			<polygon class="st45" points="277.58,268.32 279.19,269.44 277.94,272.14 277.87,273.6 280.3,280.03 273.47,272.46 			"/>
		</g>
		<g>
			<path class="st32" d="M272.6,232.15c0,0,17.03,4.15,23.07,7.08c1.82,0.89,2.97,3.51,0.64,7.56c-2.93,5.1-18.03,24.89-18.03,24.89
				l-2.33-1.99l11.22-24.32l-24.98-5.86L272.6,232.15z"/>
		</g>
		<g>
			<path class="st36" d="M261.06,239.8c0,0-0.23,5.92,6.44,7.67c0,0,6.16-0.23,17.32,0.12L310,274.18l2.43-1.58l-16.76-26.83
				c0,0-2.44-4.11-3.79-4.91c-4.61-2.73-22.75-5.26-22.75-5.26L261.06,239.8z"/>
		</g>
		<g>
			<g>
				<path class="st31" d="M301.88,220.49c0,0,3.04-1.72,3.75-1.34c0.6,0.32,2.14,2.42-3.36,2.7L301.88,220.49z"/>
			</g>
			<g>
				<path class="st49" d="M275.05,214.86l7.63,13.83l20.03-6.71l-0.49-1.7l-16.21,2.75l-7.45-11.92c0,0-3.27-5.27-4.88-2.53
					C272.88,209.96,273.53,212,275.05,214.86z"/>
			</g>
		</g>
		<g>
			<g>
				<g>
					<path class="st26" d="M259.99,212.45c0,0,14.15-4.73,15.8-4.54c1.65,0.19-0.02,8.23,0.24,10.25c0.39,2.96,1.39,7.13,0.64,10.6
						c-0.75,3.47,0.94,5.29,0.94,5.29l-18.08,9.46l0.2-15.27L259.99,212.45z"/>
				</g>
			</g>
		</g>
		<g>
			<path class="st31" d="M267.12,206.66l-0.6,3.98c0,0,5.15,2.9,4.47,1.02c-0.63-1.75-1.28-5.28-1.28-5.28L267.12,206.66z"/>
		</g>
		<g>
			<path class="st35" d="M266.63,202.21c-0.23,0.83-0.68,2.44-0.12,3.43c0.56,0.99,1.44,2.78,2.68,3.09
				c1.24,0.32,1.82-0.82,1.96-1.32c0.22-0.8,0-5.14-2.03-5.98C267.58,200.8,266.8,201.59,266.63,202.21z"/>
		</g>
		<g>
			<path class="st29" d="M269.97,202.14c0,0-0.75,0.93-2.11,0.75c-1.36-0.18-1.05,1.11-1.03,1.25c0.01,0.15,0.44,1.98-0.01,2.06
				c-0.46,0.08-1.33-2.17-0.83-3.81C266.49,200.76,268.97,200.27,269.97,202.14z"/>
		</g>
		<g>
			<path class="st30" d="M267.2,206.86c0,0,1.48,1.15,2.85,0.82c0.87-0.2,1.15-1.78,1.11-2.11c-0.04-0.33,0.74,2.86-1.17,3.18
				C268.07,209.08,267.2,206.86,267.2,206.86z"/>
		</g>
		<g>
			<linearGradient id="SVGID_13_" gradientUnits="userSpaceOnUse" x1="273.4497" y1="227.9412" x2="312.1665" y2="227.9412">
				<stop  offset="0" style="stop-color:#EE3F23"/>
				<stop  offset="1" style="stop-color:#FDC30D"/>
			</linearGradient>
			<path class="st50" d="M312.17,227.94c0,10.69-8.67,19.36-19.36,19.36c-10.69,0-19.36-8.67-19.36-19.36
				c0-10.69,8.67-19.36,19.36-19.36C303.5,208.58,312.17,217.25,312.17,227.94z"/>
			<path class="st40" d="M309.98,227.99c0,9.48-7.69,17.16-17.17,17.16c-9.48,0-17.16-7.68-17.16-17.16
				c0-9.48,7.69-17.16,17.16-17.16C302.29,210.82,309.98,218.51,309.98,227.99z"/>
			<path class="st42" d="M305.8,227.99c0,7.18-5.82,12.99-12.99,12.99c-7.18,0-12.99-5.82-12.99-12.99
				c0-7.18,5.82-12.99,12.99-12.99C299.98,215,305.8,220.81,305.8,227.99z"/>
			<g>
				<path class="st43" d="M291.66,238.6v-2.46c-1.73-0.08-3.41-0.54-4.4-1.11l0.78-3.03c1.09,0.59,2.61,1.14,4.29,1.14
					c1.47,0,2.48-0.57,2.48-1.6c0-0.98-0.83-1.6-2.74-2.25c-2.77-0.93-4.65-2.22-4.65-4.73c0-2.28,1.6-4.06,4.37-4.6v-2.46h2.54
					v2.28c1.73,0.08,2.9,0.44,3.75,0.85l-0.75,2.92c-0.67-0.29-1.86-0.88-3.72-0.88c-1.68,0-2.22,0.72-2.22,1.45
					c0,0.85,0.9,1.4,3.1,2.23c3.08,1.09,4.32,2.51,4.32,4.84c0,2.3-1.63,4.27-4.6,4.79v2.64H291.66z"/>
			</g>
		</g>
		<g>
			<g>
				<path class="st31" d="M277.08,237.77c0,0,3.49,0.18,3.88,0.88c0.33,0.59,0.5,3.19-4.29,0.47L277.08,237.77z"/>
			</g>
			<g>
				<g>
					<g>
						<path class="st49" d="M257.48,218.6l-0.99,15.76l20.5,5.12l0.51-1.7l-15.15-6.4l0.13-14.05c0,0,0.08-6.2-2.75-4.75
							C258.29,213.3,257.74,215.36,257.48,218.6z"/>
					</g>
				</g>
			</g>
		</g>
	</g>
	<g>
		<path class="st26" d="M151.22,327.34c0.01,2.66-2.15,4.83-4.81,4.84l-53.92,0.16c-2.66,0.01-4.83-2.15-4.84-4.81l-0.3-100.48
			c-0.01-2.67,2.15-4.83,4.82-4.84l53.92-0.16c2.66,0,4.83,2.15,4.84,4.81L151.22,327.34z"/>
		<polygon class="st0" points="145.96,316.6 92.45,316.75 92.2,229.05 145.7,228.89 		"/>
		<path class="st0" d="M123.96,324c0.01,2.5-2.01,4.53-4.51,4.54c-2.5,0-4.54-2.02-4.54-4.52c-0.01-2.5,2.01-4.53,4.51-4.54
			C121.91,319.48,123.95,321.51,123.96,324z"/>
		<g>
			<g>
				<path class="st51" d="M163.95,266.09l11.38,1.93l-5.1,26.06c0,0,3.33,6.4,3.26,20.3l0.35,12.22l-2.1,0.42l-6.4-32.68
					C165.34,294.34,162.65,278.45,163.95,266.09z"/>
			</g>
			<g>
				<g>
					<path class="st51" d="M170.38,268.02l11.39,2.32l-5.67,23.82c0,0,4.38,5.73,6.7,19.44l2.44,11.98l-2,0.77l-11.91-31.09
						C171.34,295.25,168.45,277.87,170.38,268.02z"/>
				</g>
			</g>
			<g>
				<g>
					<path class="st31" d="M141.91,229.77c0,0-1.85-3.77-2.81-3.87c-0.81-0.08-3.76,0.96,1.51,4.96L141.91,229.77z"/>
				</g>
				<g>
					<path class="st45" d="M171.36,243.6l-17.21,8.06l-14.11-20.98l1.75-1.64l13.25,14.77l15.77-6.06c0,0,5.15-2.46,6.51,1.1
						C177.32,238.84,174.89,241.94,171.36,243.6z"/>
				</g>
			</g>
			<g>
				<path class="st36" d="M184.47,239.12c0,0,1.91,2.47,2.22,7.91c0.3,5.45-3.03,12.11-3.03,12.11l-2.08,12.05l-17.62-5.1
					l0.51-12.73l3.01-3.23l-1.07-4.01l7.09-10.62L184.47,239.12z"/>
			</g>
			<g>
				<polygon class="st34" points="174.38,325.81 171.08,325.49 170.92,328.05 170.23,329.08 165.11,332.42 166.33,332.4 
					171.2,331.53 171.6,331.88 173.4,331.82 				"/>
			</g>
			<g>
				<polygon class="st34" points="185.24,323.54 181.81,325.16 182.94,327.47 182.77,328.76 179.35,334.61 180.55,333.89 
					184.94,330.32 185.52,330.4 187.27,329.31 				"/>
			</g>
			<g>
				<g>
					<path class="st52" d="M181.32,243.18c0.29-0.03,0.57-0.07,0.84-0.13l-0.06-0.29c-3.73,0.74-8.74-1-11.88-2.36l-0.17,0.25
						C173.01,241.93,177.61,243.55,181.32,243.18z"/>
				</g>
				<g>
					<path class="st52" d="M182.63,240.36c0.28-0.03,0.57-0.07,0.84-0.12l-0.06-0.29c-3.56,0.7-8.28-0.85-11.44-2.18l-0.16,0.26
						C174.77,239.27,179.11,240.72,182.63,240.36z"/>
				</g>
				<g>
					<path class="st52" d="M181.02,246.6c0.32-0.03,0.63-0.08,0.93-0.14l-0.06-0.29c-4.33,0.87-10.22-1.31-13.62-2.84l-0.17,0.25
						C171.3,245.01,176.71,247.03,181.02,246.6z"/>
				</g>
				<g>
					<path class="st52" d="M181.24,250.41c0.35-0.04,0.7-0.09,1.04-0.15l-0.06-0.29c-5.04,1.01-11.97-1.67-15.7-3.38l0.1,0.37
						C170.17,248.56,176.35,250.91,181.24,250.41z"/>
				</g>
				<g>
					<path class="st52" d="M182.25,254.34c0.35-0.04,0.7-0.09,1.04-0.15l-0.06-0.29c-5.19,1.03-12.35-1.82-15.99-3.51l-0.22,0.23
						C170.44,252.2,177.07,254.86,182.25,254.34z"/>
				</g>
				<g>
					<path class="st52" d="M181.99,258.65c0.38-0.04,0.75-0.1,1.12-0.17l-0.06-0.29c-6.33,1.25-15.43-2.85-18.61-4.44l-0.01,0.33
						C167.55,255.63,175.74,259.29,181.99,258.65z"/>
				</g>
				<g>
					<path class="st52" d="M182.64,262.71c0.14-0.01,0.27-0.04,0.41-0.06l0.05-0.31c-6.61,0.93-15.64-3.17-18.81-4.74l-0.02,0.33
						C167.48,259.51,176.09,263.38,182.64,262.71z"/>
				</g>
				<g>
					<path class="st52" d="M182.42,266.28c-6.91-0.33-14.83-3.83-18.26-5.52l-0.01,0.33c3.5,1.71,11.34,5.15,18.22,5.5
						L182.42,266.28z"/>
				</g>
			</g>
			<g>
				<g>
					<path class="st31" d="M163.47,269.66c0,0-4.2,0.18-4.67,1.02c-0.4,0.71-0.63,3.83,5.15,0.61L163.47,269.66z"/>
				</g>
				<g>
					<path class="st45" d="M187.21,246.8l1.05,18.96l-24.68,5.96l-0.59-2.05l18.26-7.54l-0.02-16.89c0,0-0.46-5.69,3.35-5.69
						C184.57,239.54,186.93,242.91,187.21,246.8z"/>
				</g>
			</g>
			<g>
				<path class="st28" d="M177.82,226.62c0,0-4.06-0.73-4.57,3.69c-0.65,5.69,2.08,5.8,0,10.24c0,0,7.14-6.84,4.88-12.57
					L177.82,226.62z"/>
			</g>
			<g>
				<path class="st31" d="M179.15,233.03l1.24,4.67c0,0-5.77,4.15-5.2,1.81c0.53-2.17,0.84-6.48,0.84-6.48H179.15z"/>
			</g>
			<g>
				<path class="st35" d="M179.15,227.64c0.38,0.96,1.14,2.82,0.6,4.08c-0.55,1.26-1.35,3.51-2.79,4.05
					c-1.44,0.54-1.82-1.08-2.12-1.62c-0.31-0.54-1.07-5.84,1.25-7.11C177.83,226.08,178.86,226.92,179.15,227.64z"/>
			</g>
			<g>
				<path class="st28" d="M177.77,226.62c0,0,2.26-0.44,3.75,1.04c2.16,2.15,3.04,7.12-4.06,13.2c0,0,3.97-11.19,0-12.88
					L177.77,226.62z"/>
			</g>
			<g>
				<path class="st53" d="M176.93,228.22c0,0,1.33,2.81,3.24,3.39c0,0,1.55-4.68-2.39-5.22c-1.33-0.18-3.98-0.22-3.54,4.05
					C174.23,230.45,176.75,229.61,176.93,228.22z"/>
			</g>
			<g>
				<polygon class="st54" points="181.24,262.12 181.23,256.7 183.05,263.2 174.4,265.12 				"/>
			</g>
		</g>
		<g>
			<rect x="98.99" y="241.84" class="st1" width="40.6" height="52.35"/>
			<rect x="102.44" y="275.79" class="st2" width="31.79" height="15.21"/>
			<rect x="102.44" y="245.82" class="st2" width="31.79" height="2.15"/>
			<rect x="102.44" y="250.66" class="st2" width="31.79" height="2.15"/>
			<rect x="102.44" y="256.46" class="st2" width="31.79" height="2.15"/>
			<rect x="102.44" y="261.29" class="st2" width="31.79" height="2.15"/>
		</g>
		<g>
			<g>
				<g>
					<path class="st31" d="M64.65,244.07l8.29,13.22l19.39-7.71l-0.58-1.65l-15.83,3.6l-8-11.35c0,0-2.39-4.04-4.94-2.23
						C62.97,237.95,62.99,241.33,64.65,244.07z"/>
				</g>
				<g>
					<path class="st31" d="M91.41,248.18c0,0,2.73-2.11,3.48-1.83c0.63,0.24,2.42,2.07-2.92,3.1L91.41,248.18z"/>
				</g>
			</g>
			<g>
				<g>
					<path class="st31" d="M41.62,248.06l8.29,13.22l19.39-7.71l-0.58-1.65l-15.83,3.59l-8-11.35c0,0-2.39-4.04-4.94-2.23
						C39.94,241.93,39.96,245.32,41.62,248.06z"/>
				</g>
				<g>
					<path class="st31" d="M68.38,252.17c0,0,2.73-2.11,3.48-1.83c0.63,0.23,2.42,2.07-2.91,3.1L68.38,252.17z"/>
				</g>
			</g>
			<g>
				<polygon class="st45" points="47.45,332.54 48.56,332.63 48.75,334.33 49.16,335.09 52.24,337.6 46.68,335.79 				"/>
			</g>
			<g>
				<polygon class="st45" points="43.46,329.55 44.33,330.25 43.55,331.77 43.47,332.62 44.66,336.42 41.02,331.84 				"/>
			</g>
			<g>
				<g>
					<polygon class="st32" points="42.04,271.08 45.17,305.51 46.29,333.91 48.97,333.91 51.65,304.4 55.01,271.08 					"/>
				</g>
			</g>
			<g>
				<g>
					<polygon class="st36" points="66.63,271.08 65.74,302.49 44.72,331.23 42.04,329.89 56.57,303.95 51.43,272.86 51.43,271.08 
											"/>
				</g>
			</g>
			<g>
				<polygon class="st45" points="42.04,271.08 66.63,271.08 63.95,253.86 63.95,236.63 54.15,234.67 42.04,235.78 42.04,252.41 
									"/>
			</g>
			<g>
				<path class="st45" d="M62.94,236.72c0,0-4.01,2.29,2.73,9.59l3.99-4.31C69.65,242,66.65,235.83,62.94,236.72z"/>
			</g>
			<g>
				<path class="st45" d="M42.74,235.72c0,0-4.56-0.63-3.68,9.26l5.79-0.99C44.85,244,46.24,237.28,42.74,235.72z"/>
			</g>
			<g>
				<g>
					<path class="st31" d="M52.09,235.71c-0.05,0.87,3.43,0.87,3.46,0c0.11-2.51-0.33-4.36-0.33-4.36l-2.57-0.95
						C52.65,230.41,52.2,233.9,52.09,235.71z"/>
				</g>
				<g>
					<path class="st31" d="M54.78,232.75c0.23,0.02,2.4,0.39,2.74-0.67c0.34-1.06,0.23-4.98-0.28-5.93
						c-0.5-0.95-2.18-1.51-2.96-1.17c-0.79,0.34-2.9,2.59-1.73,6.44C52.55,231.42,53.5,232.62,54.78,232.75z"/>
				</g>
				<g>
					<path class="st45" d="M57.71,226.15c0,0-0.19,1.34-1.14,1.23c-0.95-0.11-2.57-0.39-2.74,0.33c-0.17,0.73,0.51,3.19,0,3.8
						c-0.51,0.61-1.79,1.34-2.07,0.45c-0.28-0.9-0.84-6.43,2.07-7.71C53.83,224.25,56.73,223.64,57.71,226.15z"/>
				</g>
			</g>
		</g>
	</g>
	<g>
		<linearGradient id="SVGID_14_" gradientUnits="userSpaceOnUse" x1="85.8096" y1="211.0413" x2="113.6963" y2="211.0413">
			<stop  offset="0" style="stop-color:#EE3F23"/>
			<stop  offset="1" style="stop-color:#FDC30D"/>
		</linearGradient>
		<path class="st55" d="M113.7,211.04c0,7.7-6.24,13.94-13.94,13.94c-7.7,0-13.94-6.24-13.94-13.94c0-7.7,6.24-13.94,13.94-13.94
			C107.45,197.1,113.7,203.34,113.7,211.04z"/>
		<path class="st40" d="M112.12,211.08c0,6.83-5.54,12.36-12.36,12.36c-6.83,0-12.36-5.54-12.36-12.36
			c0-6.83,5.54-12.36,12.36-12.36C106.58,198.71,112.12,204.25,112.12,211.08z"/>
		<path class="st42" d="M109.11,211.08c0,5.17-4.19,9.36-9.36,9.36c-5.17,0-9.36-4.19-9.36-9.36c0-5.17,4.19-9.36,9.36-9.36
			C104.92,201.72,109.11,205.91,109.11,211.08z"/>
		<g>
			<path class="st43" d="M98.92,218.72v-1.77c-1.25-0.05-2.46-0.39-3.17-0.8l0.56-2.18c0.78,0.43,1.88,0.82,3.09,0.82
				c1.06,0,1.79-0.41,1.79-1.16c0-0.71-0.6-1.15-1.97-1.62c-1.99-0.67-3.35-1.6-3.35-3.41c0-1.64,1.16-2.93,3.15-3.32v-1.77h1.83
				v1.64c1.25,0.06,2.09,0.32,2.7,0.62l-0.54,2.11c-0.48-0.21-1.34-0.63-2.68-0.63c-1.21,0-1.6,0.52-1.6,1.04
				c0,0.61,0.65,1.01,2.24,1.6c2.22,0.78,3.11,1.81,3.11,3.48c0,1.66-1.17,3.07-3.31,3.45v1.9H98.92z"/>
		</g>
	</g>
	<g>
		<linearGradient id="SVGID_15_" gradientUnits="userSpaceOnUse" x1="107.0273" y1="183.4746" x2="127.4375" y2="183.4746">
			<stop  offset="0" style="stop-color:#EE3F23"/>
			<stop  offset="1" style="stop-color:#FDC30D"/>
		</linearGradient>
		<path class="st56" d="M127.44,183.47c0,5.64-4.57,10.21-10.21,10.21c-5.64,0-10.21-4.57-10.21-10.21c0-5.64,4.57-10.2,10.21-10.2
			C122.87,173.27,127.44,177.84,127.44,183.47z"/>
		<path class="st40" d="M126.28,183.5c0,5-4.05,9.05-9.05,9.05c-5,0-9.05-4.05-9.05-9.05c0-5,4.05-9.05,9.05-9.05
			C122.23,174.45,126.28,178.5,126.28,183.5z"/>
		<path class="st42" d="M124.08,183.5c0,3.78-3.07,6.85-6.85,6.85c-3.78,0-6.85-3.07-6.85-6.85c0-3.78,3.07-6.85,6.85-6.85
			C121.02,176.65,124.08,179.72,124.08,183.5z"/>
		<g>
			<path class="st43" d="M116.63,189.09v-1.29c-0.91-0.04-1.8-0.29-2.32-0.59l0.41-1.6c0.57,0.31,1.38,0.6,2.26,0.6
				c0.78,0,1.31-0.3,1.31-0.85c0-0.52-0.44-0.85-1.45-1.19c-1.46-0.49-2.45-1.17-2.45-2.49c0-1.2,0.85-2.14,2.3-2.43v-1.29h1.34v1.2
				c0.91,0.04,1.53,0.23,1.98,0.45l-0.39,1.54c-0.36-0.15-0.98-0.46-1.96-0.46c-0.88,0-1.17,0.38-1.17,0.76
				c0,0.45,0.48,0.74,1.64,1.17c1.62,0.57,2.28,1.32,2.28,2.55c0,1.21-0.86,2.25-2.43,2.52v1.39H116.63z"/>
		</g>
	</g>
	<g>
		<linearGradient id="SVGID_16_" gradientUnits="userSpaceOnUse" x1="119.8408" y1="213.5811" x2="140.251" y2="213.5811">
			<stop  offset="0" style="stop-color:#EE3F23"/>
			<stop  offset="1" style="stop-color:#FDC30D"/>
		</linearGradient>
		<path class="st57" d="M140.25,213.58c0,5.64-4.57,10.21-10.21,10.21c-5.64,0-10.21-4.57-10.21-10.21
			c0-5.64,4.57-10.21,10.21-10.21C135.68,203.38,140.25,207.95,140.25,213.58z"/>
		<path class="st40" d="M139.09,213.61c0,5-4.05,9.05-9.05,9.05c-5,0-9.05-4.05-9.05-9.05c0-5,4.05-9.05,9.05-9.05
			C135.04,204.56,139.09,208.61,139.09,213.61z"/>
		<path class="st42" d="M136.9,213.61c0,3.78-3.07,6.85-6.85,6.85c-3.78,0-6.85-3.07-6.85-6.85c0-3.78,3.07-6.85,6.85-6.85
			C133.83,206.76,136.9,209.82,136.9,213.61z"/>
		<g>
			<path class="st43" d="M129.44,219.2v-1.29c-0.91-0.04-1.8-0.29-2.32-0.59l0.41-1.6c0.57,0.31,1.38,0.6,2.26,0.6
				c0.78,0,1.31-0.3,1.31-0.85c0-0.52-0.44-0.84-1.45-1.19c-1.46-0.49-2.46-1.17-2.46-2.49c0-1.2,0.85-2.14,2.3-2.43v-1.29h1.34v1.2
				c0.91,0.04,1.53,0.23,1.98,0.45l-0.39,1.54c-0.36-0.15-0.98-0.46-1.96-0.46c-0.89,0-1.17,0.38-1.17,0.76
				c0,0.45,0.48,0.74,1.64,1.17c1.62,0.57,2.28,1.32,2.28,2.55c0,1.21-0.86,2.25-2.43,2.52v1.39H129.44z"/>
		</g>
	</g>
	<g>
		<linearGradient id="SVGID_17_" gradientUnits="userSpaceOnUse" x1="101.3105" y1="240.8564" x2="121.7207" y2="240.8564">
			<stop  offset="0" style="stop-color:#EE3F23"/>
			<stop  offset="1" style="stop-color:#FDC30D"/>
		</linearGradient>
		<path class="st58" d="M121.72,240.86c0,5.64-4.57,10.21-10.21,10.21c-5.64,0-10.21-4.57-10.21-10.21c0-5.63,4.57-10.2,10.21-10.2
			C117.15,230.65,121.72,235.22,121.72,240.86z"/>
		
			<ellipse transform="matrix(0.7252 -0.6886 0.6886 0.7252 -135.2134 142.9824)" class="st40" cx="111.52" cy="240.88" rx="9.05" ry="9.05"/>
		<path class="st42" d="M118.37,240.88c0,3.78-3.07,6.85-6.85,6.85c-3.78,0-6.85-3.07-6.85-6.85s3.07-6.85,6.85-6.85
			C115.3,234.03,118.37,237.1,118.37,240.88z"/>
		<g>
			<path class="st43" d="M110.91,246.48v-1.29c-0.91-0.04-1.8-0.29-2.32-0.59L109,243c0.57,0.31,1.38,0.6,2.26,0.6
				c0.78,0,1.31-0.3,1.31-0.85c0-0.52-0.44-0.85-1.44-1.19c-1.46-0.49-2.46-1.17-2.46-2.5c0-1.2,0.85-2.14,2.3-2.43v-1.3h1.34v1.2
				c0.91,0.04,1.53,0.23,1.98,0.45l-0.39,1.54c-0.36-0.15-0.98-0.46-1.96-0.46c-0.88,0-1.17,0.38-1.17,0.76
				c0,0.45,0.48,0.74,1.64,1.17c1.62,0.57,2.28,1.32,2.28,2.55c0,1.21-0.86,2.25-2.43,2.52v1.39H110.91z"/>
		</g>
	</g>
	<g>
		<path class="st59" d="M138.37,248.41c0,3.97-3.22,7.19-7.19,7.19c-3.97,0-7.19-3.22-7.19-7.19c0-3.97,3.22-7.19,7.19-7.19
			C135.15,241.22,138.37,244.44,138.37,248.41z"/>
		<path class="st42" d="M137.56,248.43c0,3.52-2.86,6.38-6.38,6.38c-3.52,0-6.38-2.86-6.38-6.38c0-3.52,2.86-6.38,6.38-6.38
			C134.7,242.05,137.56,244.91,137.56,248.43z"/>
		<path class="st42" d="M136.01,248.43c0,2.67-2.16,4.83-4.83,4.83s-4.83-2.16-4.83-4.83s2.16-4.83,4.83-4.83
			S136.01,245.76,136.01,248.43z"/>
		<g>
			<path class="st43" d="M130.75,252.37v-0.91c-0.64-0.03-1.27-0.2-1.63-0.41l0.29-1.12c0.4,0.22,0.97,0.42,1.6,0.42
				c0.55,0,0.92-0.21,0.92-0.6c0-0.37-0.31-0.6-1.02-0.84c-1.03-0.35-1.73-0.83-1.73-1.76c0-0.85,0.6-1.51,1.62-1.71v-0.91h0.94
				v0.85c0.64,0.03,1.08,0.16,1.39,0.32l-0.28,1.09c-0.25-0.11-0.69-0.33-1.38-0.33c-0.62,0-0.83,0.27-0.83,0.54
				c0,0.32,0.34,0.52,1.15,0.83c1.14,0.4,1.6,0.93,1.6,1.8c0,0.86-0.6,1.59-1.71,1.78v0.98H130.75z"/>
		</g>
	</g>
	<g>
		<linearGradient id="SVGID_18_" gradientUnits="userSpaceOnUse" x1="467.5303" y1="208.3403" x2="500.3926" y2="208.3403">
			<stop  offset="0" style="stop-color:#EE3F23"/>
			<stop  offset="1" style="stop-color:#FDC30D"/>
		</linearGradient>
		<path class="st60" d="M500.39,208.34c0,9.07-7.36,16.43-16.43,16.43c-9.08,0-16.43-7.36-16.43-16.43
			c0-9.08,7.36-16.43,16.43-16.43C493.03,191.91,500.39,199.27,500.39,208.34z"/>
		<path class="st40" d="M498.53,208.38c0,8.05-6.52,14.57-14.57,14.57c-8.05,0-14.57-6.52-14.57-14.57
			c0-8.05,6.53-14.57,14.57-14.57C492.01,193.81,498.53,200.33,498.53,208.38z"/>
		<path class="st42" d="M494.99,208.38c0,6.09-4.94,11.03-11.03,11.03c-6.09,0-11.03-4.94-11.03-11.03
			c0-6.09,4.94-11.03,11.03-11.03C490.05,197.35,494.99,202.29,494.99,208.38z"/>
		<g>
			<path class="st43" d="M482.99,217.39v-2.09c-1.47-0.07-2.9-0.46-3.73-0.94l0.66-2.57c0.92,0.5,2.21,0.96,3.64,0.96
				c1.25,0,2.11-0.48,2.11-1.36c0-0.83-0.7-1.36-2.33-1.91c-2.35-0.79-3.95-1.89-3.95-4.02c0-1.93,1.36-3.45,3.71-3.91v-2.08h2.15
				v1.93c1.47,0.07,2.46,0.37,3.18,0.72l-0.63,2.48c-0.57-0.24-1.58-0.75-3.16-0.75c-1.42,0-1.89,0.62-1.89,1.23
				c0,0.72,0.77,1.19,2.63,1.89c2.61,0.92,3.66,2.13,3.66,4.11c0,1.95-1.38,3.62-3.91,4.06v2.24H482.99z"/>
		</g>
	</g>
</g>
</svg>
